<svg width="1059" height="106" viewBox="0 0 1059 106" fill="none" xmlns="http://www.w3.org/2000/svg"><path d="M77.0118 60.664h-12.96L61.3158 67h-3.78l11.412-25.632h3.132L83.5278 67h-3.78l-2.736-6.336zm-1.26-2.952l-5.22-12.204-5.22 12.204h10.44zm28.2532 9.54c-1.824 0-3.42-.384-4.788-1.152-1.344-.768-2.376-1.848-3.096-3.24-.72-1.416-1.08-3.06-1.08-4.932 0-1.872.372-3.528 1.116-4.968.768-1.44 1.836-2.556 3.204-3.348 1.368-.792 2.964-1.188 4.788-1.188 1.272 0 2.496.216 3.672.648 1.176.408 2.124.972 2.844 1.692l-1.116 2.628c-1.704-1.344-3.42-2.016-5.148-2.016-1.752 0-3.12.576-4.104 1.728-.984 1.128-1.476 2.724-1.476 4.788s.492 3.66 1.476 4.788c.984 1.104 2.352 1.656 4.104 1.656 1.776 0 3.492-.672 5.148-2.016l1.116 2.628c-.768.72-1.752 1.284-2.952 1.692-1.176.408-2.412.612-3.708.612zm25.849-18.396V67h-3.528v-3.024c-.576 1.056-1.368 1.872-2.376 2.448-1.008.552-2.148.828-3.42.828-4.368 0-6.552-2.424-6.552-7.272V48.856h3.6v11.088c0 1.488.3 2.592.9 3.312.624.696 1.56 1.044 2.808 1.044 1.488 0 2.676-.48 3.564-1.44.912-.96 1.368-2.232 1.368-3.816V48.856h3.636zm14.362-.432c.552 0 1.128.084 1.728.252l-.072 3.312c-.648-.24-1.356-.36-2.124-.36-1.656 0-2.904.504-3.744 1.512-.816.984-1.224 2.232-1.224 3.744V67h-3.6V53.968c0-1.896-.096-3.6-.288-5.112h3.384l.324 3.276c.48-1.2 1.224-2.112 2.232-2.736 1.008-.648 2.136-.972 3.384-.972zm20.743.432V67h-3.6v-3.096c-.528 1.08-1.32 1.908-2.376 2.484-1.032.576-2.244.864-3.636.864-1.608 0-3.024-.384-4.248-1.152-1.2-.768-2.136-1.848-2.808-3.24-.672-1.416-1.008-3.06-1.008-4.932 0-1.872.336-3.528 1.008-4.968.696-1.44 1.656-2.556 2.88-3.348 1.224-.792 2.616-1.188 4.176-1.188 1.392 0 2.604.3 3.636.9 1.032.576 1.824 1.404 2.376 2.484v-2.952h3.6zm-8.748 15.516c1.632 0 2.892-.564 3.78-1.692.912-1.152 1.368-2.76 1.368-4.824 0-2.088-.456-3.696-1.368-4.824-.888-1.128-2.16-1.692-3.816-1.692-1.632 0-2.916.588-3.852 1.764-.912 1.152-1.368 2.76-1.368 4.824 0 2.04.456 3.624 1.368 4.752.936 1.128 2.232 1.692 3.888 1.692zm18.806-12.708v9.108c0 1.248.264 2.136.792 2.664.552.504 1.308.756 2.268.756.624 0 1.26-.096 1.908-.288v2.952c-.792.264-1.692.396-2.7.396-1.872 0-3.324-.528-4.356-1.584s-1.548-2.592-1.548-4.608v-9.396h-3.528v-2.808h3.528V44.32l3.636-1.26v5.796h5.004v2.808h-5.004zm8.362-2.808h3.6V67h-3.6V48.856zm3.888-7.92v3.816h-4.212v-3.816h4.212zm12.854 26.316c-1.776 0-3.336-.384-4.68-1.152-1.344-.768-2.388-1.86-3.132-3.276-.72-1.416-1.08-3.072-1.08-4.968s.36-3.552 1.08-4.968c.744-1.44 1.788-2.544 3.132-3.312 1.344-.768 2.904-1.152 4.68-1.152 1.752 0 3.3.384 4.644 1.152 1.344.768 2.376 1.872 3.096 3.312.744 1.416 1.116 3.072 1.116 4.968s-.372 3.552-1.116 4.968c-.72 1.416-1.752 2.508-3.096 3.276-1.344.768-2.892 1.152-4.644 1.152zm-.036-2.88c1.68 0 2.964-.552 3.852-1.656.888-1.104 1.332-2.724 1.332-4.86 0-2.088-.456-3.696-1.368-4.824-.888-1.128-2.148-1.692-3.78-1.692-1.656 0-2.94.564-3.852 1.692-.912 1.128-1.368 2.736-1.368 4.824 0 2.136.444 3.756 1.332 4.86.912 1.104 2.196 1.656 3.852 1.656zm22.79-15.948c4.344 0 6.516 2.424 6.516 7.272V67h-3.636V55.912c0-1.584-.312-2.736-.936-3.456-.6-.72-1.572-1.08-2.916-1.08-1.536 0-2.772.48-3.708 1.44-.912.96-1.368 2.244-1.368 3.852V67h-3.6V53.968c0-1.896-.096-3.6-.289-5.112h3.385l.324 3.132c.576-1.152 1.404-2.028 2.484-2.628 1.104-.624 2.352-.936 3.744-.936zm29.101 18.828c-1.776 0-3.336-.384-4.68-1.152-1.344-.768-2.388-1.86-3.132-3.276-.72-1.416-1.08-3.072-1.08-4.968s.36-3.552 1.08-4.968c.744-1.44 1.788-2.544 3.132-3.312 1.344-.768 2.904-1.152 4.68-1.152 1.752 0 3.3.384 4.644 1.152 1.344.768 2.376 1.872 3.096 3.312.744 1.416 1.116 3.072 1.116 4.968s-.372 3.552-1.116 4.968c-.72 1.416-1.752 2.508-3.096 3.276-1.344.768-2.892 1.152-4.644 1.152zm-.036-2.88c1.68 0 2.964-.552 3.852-1.656.888-1.104 1.332-2.724 1.332-4.86 0-2.088-.456-3.696-1.368-4.824-.888-1.128-2.148-1.692-3.78-1.692-1.656 0-2.94.564-3.852 1.692-.912 1.128-1.368 2.736-1.368 4.824 0 2.136.444 3.756 1.332 4.86.912 1.104 2.196 1.656 3.852 1.656zm20.74-20.952c-1.992 0-2.988 1.14-2.988 3.42v2.016h4.248v2.808h-4.248V67h-3.636V51.664h-3.492v-2.808h3.492v-2.304c0-2.016.504-3.552 1.512-4.608 1.032-1.056 2.472-1.584 4.32-1.584.96 0 1.836.12 2.628.36v2.988c-.648-.192-1.26-.288-1.836-.288zm19.266 8.244v9.108c0 1.248.264 2.136.792 2.664.552.504 1.308.756 2.268.756.624 0 1.26-.096 1.908-.288v2.952c-.792.264-1.692.396-2.7.396-1.872 0-3.324-.528-4.356-1.584s-1.548-2.592-1.548-4.608v-9.396h-3.528v-2.808h3.528V44.32l3.636-1.26v5.796h5.004v2.808h-5.004zm18.011-3.24c4.344 0 6.516 2.424 6.516 7.272V67h-3.636V55.912c0-1.584-.312-2.736-.936-3.456-.6-.72-1.572-1.08-2.916-1.08-1.536 0-2.772.48-3.708 1.44-.912.96-1.368 2.244-1.368 3.852V67h-3.6V40.504h3.6v11.16c.6-1.056 1.428-1.86 2.484-2.412 1.056-.552 2.244-.828 3.564-.828zM337.128 58h-12.96c.12 4.248 2.052 6.372 5.796 6.372 2.088 0 3.996-.684 5.724-2.052l1.116 2.592c-.816.72-1.86 1.296-3.132 1.728-1.248.408-2.508.612-3.78.612-2.904 0-5.184-.828-6.84-2.484-1.656-1.68-2.484-3.972-2.484-6.876 0-1.848.36-3.492 1.08-4.932.744-1.44 1.776-2.556 3.096-3.348 1.32-.792 2.82-1.188 4.5-1.188 2.448 0 4.368.792 5.76 2.376 1.416 1.584 2.124 3.78 2.124 6.588V58zm-7.812-6.876c-1.368 0-2.484.408-3.348 1.224-.864.816-1.416 1.98-1.656 3.492h9.612c-.144-1.536-.612-2.7-1.404-3.492-.792-.816-1.86-1.224-3.204-1.224zm31.194-2.7c1.584 0 2.988.384 4.212 1.152 1.224.768 2.172 1.86 2.844 3.276.672 1.416 1.008 3.06 1.008 4.932 0 1.872-.348 3.528-1.044 4.968-.672 1.416-1.62 2.52-2.844 3.312-1.224.792-2.616 1.188-4.176 1.188-1.392 0-2.616-.288-3.672-.864-1.032-.6-1.812-1.452-2.34-2.556V67h-3.6V40.504h3.6v11.34c.528-1.08 1.308-1.92 2.34-2.52 1.056-.6 2.28-.9 3.672-.9zm-.828 15.948c1.632 0 2.904-.576 3.816-1.728.912-1.176 1.368-2.796 1.368-4.86 0-2.04-.456-3.624-1.368-4.752-.912-1.128-2.184-1.692-3.816-1.692-1.656 0-2.94.564-3.852 1.692-.888 1.128-1.332 2.736-1.332 4.824 0 2.088.444 3.696 1.332 4.824.912 1.128 2.196 1.692 3.852 1.692zM388.316 58h-12.96c.12 4.248 2.052 6.372 5.796 6.372 2.088 0 3.996-.684 5.724-2.052l1.116 2.592c-.816.72-1.86 1.296-3.132 1.728-1.248.408-2.508.612-3.78.612-2.904 0-5.184-.828-6.84-2.484-1.656-1.68-2.484-3.972-2.484-6.876 0-1.848.36-3.492 1.08-4.932.744-1.44 1.776-2.556 3.096-3.348 1.32-.792 2.82-1.188 4.5-1.188 2.448 0 4.368.792 5.76 2.376 1.416 1.584 2.124 3.78 2.124 6.588V58zm-7.812-6.876c-1.368 0-2.484.408-3.348 1.224-.864.816-1.416 1.98-1.656 3.492h9.612c-.144-1.536-.612-2.7-1.404-3.492-.792-.816-1.86-1.224-3.204-1.224zm18.32 16.128c-3.168 0-5.664-.768-7.488-2.304l1.08-2.628c1.896 1.44 4.068 2.16 6.516 2.16 1.248 0 2.196-.204 2.844-.612.648-.432.972-1.032.972-1.8 0-.648-.228-1.152-.684-1.512-.432-.384-1.176-.708-2.232-.972l-3.024-.72c-1.584-.336-2.796-.924-3.636-1.764-.816-.864-1.224-1.932-1.224-3.204 0-1.632.648-2.952 1.944-3.96 1.32-1.008 3.06-1.512 5.22-1.512 1.296 0 2.52.204 3.672.612 1.176.408 2.172.984 2.988 1.728l-1.116 2.556c-1.752-1.392-3.6-2.088-5.544-2.088-1.176 0-2.088.228-2.736.684-.648.432-.972 1.044-.972 1.836 0 .624.204 1.128.612 1.512.408.384 1.056.684 1.944.9l3.096.756c1.728.384 3 .996 3.816 1.836.84.816 1.26 1.884 1.26 3.204 0 1.632-.66 2.928-1.98 3.888-1.296.936-3.072 1.404-5.328 1.404zm16.134-15.588v9.108c0 1.248.264 2.136.792 2.664.552.504 1.308.756 2.268.756.624 0 1.26-.096 1.908-.288v2.952c-.792.264-1.692.396-2.7.396-1.872 0-3.324-.528-4.356-1.584s-1.548-2.592-1.548-4.608v-9.396h-3.528v-2.808h3.528V44.32l3.636-1.26v5.796h5.004v2.808h-5.004zm25.844 15.588c-1.824 0-3.42-.384-4.788-1.152-1.344-.768-2.376-1.848-3.096-3.24-.72-1.416-1.08-3.06-1.08-4.932 0-1.872.372-3.528 1.116-4.968.768-1.44 1.836-2.556 3.204-3.348 1.368-.792 2.964-1.188 4.788-1.188 1.272 0 2.496.216 3.672.648 1.176.408 2.124.972 2.844 1.692l-1.116 2.628c-1.704-1.344-3.42-2.016-5.148-2.016-1.752 0-3.12.576-4.104 1.728-.984 1.128-1.476 2.724-1.476 4.788s.492 3.66 1.476 4.788c.984 1.104 2.352 1.656 4.104 1.656 1.776 0 3.492-.672 5.148-2.016l1.116 2.628c-.768.72-1.752 1.284-2.952 1.692-1.176.408-2.412.612-3.708.612zm10.081-18.396h3.6V67h-3.6V48.856zm3.888-7.92v3.816h-4.212v-3.816h4.212zm9.757 10.728v9.108c0 1.248.264 2.136.792 2.664.552.504 1.308.756 2.268.756.624 0 1.26-.096 1.908-.288v2.952c-.792.264-1.692.396-2.7.396-1.872 0-3.324-.528-4.356-1.584s-1.548-2.592-1.548-4.608v-9.396h-3.528v-2.808h3.528V44.32l3.636-1.26v5.796h5.004v2.808h-5.004zm25.097-2.808l-8.46 19.62c-.936 2.136-2.112 3.696-3.528 4.68-1.392 1.008-3.12 1.68-5.184 2.016l-.792-2.808c1.704-.384 2.988-.888 3.852-1.512.888-.6 1.596-1.512 2.124-2.736l.648-1.512-7.632-17.748h3.852l5.688 14.04 5.796-14.04h3.636zm8.867 18.396c-3.168 0-5.664-.768-7.488-2.304l1.08-2.628c1.896 1.44 4.068 2.16 6.516 2.16 1.248 0 2.196-.204 2.844-.612.648-.432.972-1.032.972-1.8 0-.648-.228-1.152-.684-1.512-.432-.384-1.176-.708-2.232-.972l-3.024-.72c-1.584-.336-2.796-.924-3.636-1.764-.816-.864-1.224-1.932-1.224-3.204 0-1.632.648-2.952 1.944-3.96 1.32-1.008 3.06-1.512 5.22-1.512 1.296 0 2.52.204 3.672.612 1.176.408 2.172.984 2.988 1.728l-1.116 2.556c-1.752-1.392-3.6-2.088-5.544-2.088-1.176 0-2.088.228-2.736.684-.648.432-.972 1.044-.972 1.836 0 .624.204 1.128.612 1.512.408.384 1.056.684 1.944.9l3.096.756c1.728.384 3 .996 3.816 1.836.84.816 1.26 1.884 1.26 3.204 0 1.632-.66 2.928-1.98 3.888-1.296.936-3.072 1.404-5.328 1.404zm21.206-18.828c1.56 0 2.952.396 4.176 1.188 1.224.792 2.172 1.908 2.844 3.348.696 1.44 1.044 3.096 1.044 4.968 0 1.872-.336 3.516-1.008 4.932-.672 1.392-1.62 2.472-2.844 3.24-1.224.768-2.628 1.152-4.212 1.152-1.392 0-2.616-.288-3.672-.864-1.032-.6-1.812-1.452-2.34-2.556v10.944h-3.6V53.968c0-1.896-.096-3.6-.288-5.112h3.384l.36 3.348c.48-1.2 1.26-2.124 2.34-2.772 1.08-.672 2.352-1.008 3.816-1.008zm-.828 15.948c1.632 0 2.904-.564 3.816-1.692.912-1.128 1.368-2.712 1.368-4.752 0-2.064-.456-3.672-1.368-4.824-.912-1.176-2.184-1.764-3.816-1.764-1.68 0-2.964.564-3.852 1.692-.888 1.128-1.332 2.736-1.332 4.824 0 2.088.444 3.696 1.332 4.824.912 1.128 2.196 1.692 3.852 1.692zm29.749-15.516V67h-3.6v-3.096c-.528 1.08-1.32 1.908-2.376 2.484-1.032.576-2.244.864-3.636.864-1.608 0-3.024-.384-4.248-1.152-1.2-.768-2.136-1.848-2.808-3.24-.672-1.416-1.008-3.06-1.008-4.932 0-1.872.336-3.528 1.008-4.968.696-1.44 1.656-2.556 2.88-3.348 1.224-.792 2.616-1.188 4.176-1.188 1.392 0 2.604.3 3.636.9 1.032.576 1.824 1.404 2.376 2.484v-2.952h3.6zm-8.748 15.516c1.632 0 2.892-.564 3.78-1.692.912-1.152 1.368-2.76 1.368-4.824 0-2.088-.456-3.696-1.368-4.824-.888-1.128-2.16-1.692-3.816-1.692-1.632 0-2.916.588-3.852 1.764-.912 1.152-1.368 2.76-1.368 4.824 0 2.04.456 3.624 1.368 4.752.936 1.128 2.232 1.692 3.888 1.692zm21.974 2.88c-1.824 0-3.42-.384-4.788-1.152-1.344-.768-2.376-1.848-3.096-3.24-.72-1.416-1.08-3.06-1.08-4.932 0-1.872.372-3.528 1.116-4.968.768-1.44 1.836-2.556 3.204-3.348 1.368-.792 2.964-1.188 4.788-1.188 1.272 0 2.496.216 3.672.648 1.176.408 2.124.972 2.844 1.692l-1.116 2.628c-1.704-1.344-3.42-2.016-5.148-2.016-1.752 0-3.12.576-4.104 1.728-.984 1.128-1.476 2.724-1.476 4.788s.492 3.66 1.476 4.788c.984 1.104 2.352 1.656 4.104 1.656 1.776 0 3.492-.672 5.148-2.016l1.116 2.628c-.768.72-1.752 1.284-2.952 1.692-1.176.408-2.412.612-3.708.612zM587.406 58h-12.96c.12 4.248 2.052 6.372 5.796 6.372 2.088 0 3.996-.684 5.724-2.052l1.116 2.592c-.816.72-1.86 1.296-3.132 1.728-1.248.408-2.508.612-3.78.612-2.904 0-5.184-.828-6.84-2.484-1.656-1.68-2.484-3.972-2.484-6.876 0-1.848.36-3.492 1.08-4.932.744-1.44 1.776-2.556 3.096-3.348 1.32-.792 2.82-1.188 4.5-1.188 2.448 0 4.368.792 5.76 2.376 1.416 1.584 2.124 3.78 2.124 6.588V58zm-7.812-6.876c-1.368 0-2.484.408-3.348 1.224-.864.816-1.416 1.98-1.656 3.492h9.612c-.144-1.536-.612-2.7-1.404-3.492-.792-.816-1.86-1.224-3.204-1.224zm18.32 16.128c-3.168 0-5.664-.768-7.488-2.304l1.08-2.628c1.896 1.44 4.068 2.16 6.516 2.16 1.248 0 2.196-.204 2.844-.612.648-.432.972-1.032.972-1.8 0-.648-.228-1.152-.684-1.512-.432-.384-1.176-.708-2.232-.972l-3.024-.72c-1.584-.336-2.796-.924-3.636-1.764-.816-.864-1.224-1.932-1.224-3.204 0-1.632.648-2.952 1.944-3.96 1.32-1.008 3.06-1.512 5.22-1.512 1.296 0 2.52.204 3.672.612 1.176.408 2.172.984 2.988 1.728l-1.116 2.556c-1.752-1.392-3.6-2.088-5.544-2.088-1.176 0-2.088.228-2.736.684-.648.432-.972 1.044-.972 1.836 0 .624.204 1.128.612 1.512.408.384 1.056.684 1.944.9l3.096.756c1.728.384 3 .996 3.816 1.836.84.816 1.26 1.884 1.26 3.204 0 1.632-.66 2.928-1.98 3.888-1.296.936-3.072 1.404-5.328 1.404zm37.787-18.396V67h-3.6v-3.096c-.528 1.08-1.32 1.908-2.376 2.484-1.032.576-2.244.864-3.636.864-1.608 0-3.024-.384-4.248-1.152-1.2-.768-2.136-1.848-2.808-3.24-.672-1.416-1.008-3.06-1.008-4.932 0-1.872.336-3.528 1.008-4.968.696-1.44 1.656-2.556 2.88-3.348 1.224-.792 2.616-1.188 4.176-1.188 1.392 0 2.604.3 3.636.9 1.032.576 1.824 1.404 2.376 2.484v-2.952h3.6zm-8.748 15.516c1.632 0 2.892-.564 3.78-1.692.912-1.152 1.368-2.76 1.368-4.824 0-2.088-.456-3.696-1.368-4.824-.888-1.128-2.16-1.692-3.816-1.692-1.632 0-2.916.588-3.852 1.764-.912 1.152-1.368 2.76-1.368 4.824 0 2.04.456 3.624 1.368 4.752.936 1.128 2.232 1.692 3.888 1.692zm23.738-15.948c4.344 0 6.516 2.424 6.516 7.272V67h-3.636V55.912c0-1.584-.312-2.736-.936-3.456-.6-.72-1.572-1.08-2.916-1.08-1.536 0-2.772.48-3.708 1.44-.912.96-1.368 2.244-1.368 3.852V67h-3.6V53.968c0-1.896-.096-3.6-.288-5.112h3.384l.324 3.132c.576-1.152 1.404-2.028 2.484-2.628 1.104-.624 2.352-.936 3.744-.936zm28.288-7.92V67h-3.6v-3.096c-.528 1.08-1.32 1.908-2.376 2.484-1.032.576-2.244.864-3.636.864-1.56 0-2.952-.396-4.176-1.188-1.224-.792-2.184-1.896-2.88-3.312-.672-1.44-1.008-3.096-1.008-4.968 0-1.872.336-3.516 1.008-4.932.672-1.416 1.608-2.508 2.808-3.276 1.224-.768 2.64-1.152 4.248-1.152 1.368 0 2.568.288 3.6.864 1.056.576 1.848 1.392 2.376 2.448V40.504h3.636zm-8.784 23.868c1.656 0 2.928-.564 3.816-1.692.912-1.152 1.368-2.76 1.368-4.824s-.456-3.66-1.368-4.788c-.888-1.152-2.148-1.728-3.78-1.728-1.656 0-2.952.564-3.888 1.692-.912 1.128-1.368 2.712-1.368 4.752 0 2.064.456 3.684 1.368 4.86.936 1.152 2.22 1.728 3.852 1.728zm33.371-15.948c4.344 0 6.516 2.424 6.516 7.272V67h-3.636V55.912c0-1.584-.312-2.736-.936-3.456-.6-.72-1.572-1.08-2.916-1.08-1.536 0-2.772.48-3.708 1.44-.912.96-1.368 2.244-1.368 3.852V67h-3.6V40.504h3.6v11.16c.6-1.056 1.428-1.86 2.484-2.412 1.056-.552 2.244-.828 3.564-.828zm19.504 18.828c-1.776 0-3.336-.384-4.68-1.152-1.344-.768-2.388-1.86-3.132-3.276-.72-1.416-1.08-3.072-1.08-4.968s.36-3.552 1.08-4.968c.744-1.44 1.788-2.544 3.132-3.312 1.344-.768 2.904-1.152 4.68-1.152 1.752 0 3.3.384 4.644 1.152 1.344.768 2.376 1.872 3.096 3.312.744 1.416 1.116 3.072 1.116 4.968s-.372 3.552-1.116 4.968c-.72 1.416-1.752 2.508-3.096 3.276-1.344.768-2.892 1.152-4.644 1.152zm-.036-2.88c1.68 0 2.964-.552 3.852-1.656.888-1.104 1.332-2.724 1.332-4.86 0-2.088-.456-3.696-1.368-4.824-.888-1.128-2.148-1.692-3.78-1.692-1.656 0-2.94.564-3.852 1.692-.912 1.128-1.368 2.736-1.368 4.824 0 2.136.444 3.756 1.332 4.86.912 1.104 2.196 1.656 3.852 1.656zm28.91-15.516V67h-3.528v-3.024c-.576 1.056-1.368 1.872-2.376 2.448-1.008.552-2.148.828-3.42.828-4.368 0-6.552-2.424-6.552-7.272V48.856h3.6v11.088c0 1.488.3 2.592.9 3.312.624.696 1.56 1.044 2.808 1.044 1.488 0 2.676-.48 3.564-1.44.912-.96 1.368-2.232 1.368-3.816V48.856h3.636zm11.661 18.396c-3.168 0-5.664-.768-7.488-2.304l1.08-2.628c1.896 1.44 4.068 2.16 6.516 2.16 1.248 0 2.196-.204 2.844-.612.648-.432.972-1.032.972-1.8 0-.648-.228-1.152-.684-1.512-.432-.384-1.176-.708-2.232-.972l-3.024-.72c-1.584-.336-2.796-.924-3.636-1.764-.816-.864-1.224-1.932-1.224-3.204 0-1.632.648-2.952 1.944-3.96 1.32-1.008 3.06-1.512 5.22-1.512 1.296 0 2.52.204 3.672.612 1.176.408 2.172.984 2.988 1.728l-1.116 2.556c-1.752-1.392-3.6-2.088-5.544-2.088-1.176 0-2.088.228-2.736.684-.648.432-.972 1.044-.972 1.836 0 .624.204 1.128.612 1.512.408.384 1.056.684 1.944.9l3.096.756c1.728.384 3 .996 3.816 1.836.84.816 1.26 1.884 1.26 3.204 0 1.632-.66 2.928-1.98 3.888-1.296.936-3.072 1.404-5.328 1.404zM790.679 58h-12.96c.12 4.248 2.052 6.372 5.796 6.372 2.088 0 3.996-.684 5.724-2.052l1.116 2.592c-.816.72-1.86 1.296-3.132 1.728-1.248.408-2.508.612-3.78.612-2.904 0-5.184-.828-6.84-2.484-1.656-1.68-2.484-3.972-2.484-6.876 0-1.848.36-3.492 1.08-4.932.744-1.44 1.776-2.556 3.096-3.348 1.32-.792 2.82-1.188 4.5-1.188 2.448 0 4.368.792 5.76 2.376 1.416 1.584 2.124 3.78 2.124 6.588V58zm-7.812-6.876c-1.368 0-2.484.408-3.348 1.224-.864.816-1.416 1.98-1.656 3.492h9.612c-.144-1.536-.612-2.7-1.404-3.492-.792-.816-1.86-1.224-3.204-1.224zm18.321 16.128c-3.168 0-5.664-.768-7.488-2.304l1.08-2.628c1.896 1.44 4.068 2.16 6.516 2.16 1.248 0 2.196-.204 2.844-.612.648-.432.972-1.032.972-1.8 0-.648-.228-1.152-.684-1.512-.432-.384-1.176-.708-2.232-.972l-3.024-.72c-1.584-.336-2.796-.924-3.636-1.764-.816-.864-1.224-1.932-1.224-3.204 0-1.632.648-2.952 1.944-3.96 1.32-1.008 3.06-1.512 5.22-1.512 1.296 0 2.52.204 3.672.612 1.176.408 2.172.984 2.988 1.728l-1.116 2.556c-1.752-1.392-3.6-2.088-5.544-2.088-1.176 0-2.088.228-2.736.684-.648.432-.972 1.044-.972 1.836 0 .624.204 1.128.612 1.512.408.384 1.056.684 1.944.9l3.096.756c1.728.384 3 .996 3.816 1.836.84.816 1.26 1.884 1.26 3.204 0 1.632-.66 2.928-1.98 3.888-1.296.936-3.072 1.404-5.328 1.404zm37.787-26.748V67h-3.6v-3.096c-.528 1.08-1.32 1.908-2.376 2.484-1.032.576-2.244.864-3.636.864-1.56 0-2.952-.396-4.176-1.188-1.224-.792-2.184-1.896-2.88-3.312-.672-1.44-1.008-3.096-1.008-4.968 0-1.872.336-3.516 1.008-4.932.672-1.416 1.608-2.508 2.808-3.276 1.224-.768 2.64-1.152 4.248-1.152 1.368 0 2.568.288 3.6.864 1.056.576 1.848 1.392 2.376 2.448V40.504h3.636zm-8.784 23.868c1.656 0 2.928-.564 3.816-1.692.912-1.152 1.368-2.76 1.368-4.824s-.456-3.66-1.368-4.788c-.888-1.152-2.148-1.728-3.78-1.728-1.656 0-2.952.564-3.888 1.692-.912 1.128-1.368 2.712-1.368 4.752 0 2.064.456 3.684 1.368 4.86.936 1.152 2.22 1.728 3.852 1.728zm21.937 2.88c-1.776 0-3.336-.384-4.68-1.152-1.344-.768-2.388-1.86-3.132-3.276-.72-1.416-1.08-3.072-1.08-4.968s.36-3.552 1.08-4.968c.744-1.44 1.788-2.544 3.132-3.312 1.344-.768 2.904-1.152 4.68-1.152 1.752 0 3.3.384 4.644 1.152 1.344.768 2.376 1.872 3.096 3.312.744 1.416 1.116 3.072 1.116 4.968s-.372 3.552-1.116 4.968c-.72 1.416-1.752 2.508-3.096 3.276-1.344.768-2.892 1.152-4.644 1.152zm-.036-2.88c1.68 0 2.964-.552 3.852-1.656.888-1.104 1.332-2.724 1.332-4.86 0-2.088-.456-3.696-1.368-4.824-.888-1.128-2.148-1.692-3.78-1.692-1.656 0-2.94.564-3.852 1.692-.912 1.128-1.368 2.736-1.368 4.824 0 2.136.444 3.756 1.332 4.86.912 1.104 2.196 1.656 3.852 1.656zm41.048-15.516L886.228 67h-3.312l-4.86-13.14L873.232 67h-3.312l-6.912-18.144h3.78l4.932 13.86 5.004-13.86h2.88l5.004 13.86 4.968-13.86h3.564zm13.031-.432c4.344 0 6.516 2.424 6.516 7.272V67h-3.636V55.912c0-1.584-.312-2.736-.936-3.456-.6-.72-1.572-1.08-2.916-1.08-1.536 0-2.772.48-3.708 1.44-.912.96-1.368 2.244-1.368 3.852V67h-3.6V53.968c0-1.896-.096-3.6-.288-5.112h3.384l.324 3.132c.576-1.152 1.404-2.028 2.484-2.628 1.104-.624 2.352-.936 3.744-.936zm16.408 3.24v9.108c0 1.248.264 2.136.792 2.664.552.504 1.308.756 2.268.756.624 0 1.26-.096 1.908-.288v2.952c-.792.264-1.692.396-2.7.396-1.872 0-3.324-.528-4.356-1.584s-1.548-2.592-1.548-4.608v-9.396h-3.528v-2.808h3.528V44.32l3.636-1.26v5.796h5.004v2.808h-5.004zm16.174 15.588c-1.776 0-3.336-.384-4.68-1.152-1.344-.768-2.388-1.86-3.132-3.276-.72-1.416-1.08-3.072-1.08-4.968s.36-3.552 1.08-4.968c.744-1.44 1.788-2.544 3.132-3.312 1.344-.768 2.904-1.152 4.68-1.152 1.752 0 3.3.384 4.644 1.152 1.344.768 2.376 1.872 3.096 3.312.744 1.416 1.116 3.072 1.116 4.968s-.372 3.552-1.116 4.968c-.72 1.416-1.752 2.508-3.096 3.276-1.344.768-2.892 1.152-4.644 1.152zm-.036-2.88c1.68 0 2.964-.552 3.852-1.656.888-1.104 1.332-2.724 1.332-4.86 0-2.088-.456-3.696-1.368-4.824-.888-1.128-2.148-1.692-3.78-1.692-1.656 0-2.94.564-3.852 1.692-.912 1.128-1.368 2.736-1.368 4.824 0 2.136.444 3.756 1.332 4.86.912 1.104 2.196 1.656 3.852 1.656zm41.048-15.516L972.853 67h-3.312l-4.86-13.14L959.857 67h-3.312l-6.912-18.144h3.78l4.932 13.86 5.004-13.86h2.88l5.004 13.86 4.968-13.86h3.564zm13.031-.432c4.344 0 6.516 2.424 6.516 7.272V67h-3.636V55.912c0-1.584-.312-2.736-.936-3.456-.6-.72-1.572-1.08-2.916-1.08-1.536 0-2.772.48-3.708 1.44-.912.96-1.368 2.244-1.368 3.852V67h-3.6V53.968c0-1.896-.096-3.6-.288-5.112h3.384l.324 3.132c.576-1.152 1.404-2.028 2.484-2.628 1.104-.624 2.352-.936 3.744-.936z" fill="#fff"/></svg>