<svg width="101" height="43" viewBox="0 0 101 43" fill="none" xmlns="http://www.w3.org/2000/svg"><path d="M36.2691 25.184h-5.76L29.2931 28h-1.68l5.072-11.392h1.392L39.1651 28h-1.68l-1.216-2.816zm-.56-1.312l-2.32-5.424-2.32 5.424h4.64zm9.0594-4.128c.704 0 1.328.1707 1.872.512.544.3413.9653.8267 1.264 1.456.2987.6293.448 1.36.448 2.192 0 .832-.1547 1.568-.464 2.208-.2987.6293-.72 1.12-1.264 1.472-.544.352-1.1627.528-1.856.528-.6187 0-1.1627-.128-1.632-.384-.4587-.2667-.8053-.6453-1.04-1.136V28h-1.6V16.224h1.6v5.04c.2347-.48.5813-.8533 1.04-1.12.4693-.2667 1.0133-.4 1.632-.4zm-.368 7.088c.7253 0 1.2907-.256 1.696-.768.4053-.5227.608-1.2427.608-2.16 0-.9067-.2027-1.6107-.608-2.112-.4053-.5013-.9707-.752-1.696-.752-.736 0-1.3067.2507-1.712.752-.3947.5013-.592 1.216-.592 2.144 0 .928.1973 1.6427.592 2.144.4053.5013.976.752 1.712.752zm9.318 1.28c-.7893 0-1.4827-.1707-2.08-.512-.5973-.3413-1.0613-.8267-1.392-1.456-.32-.6293-.48-1.3653-.48-2.208 0-.8427.16-1.5787.48-2.208.3307-.64.7947-1.1307 1.392-1.472.5973-.3413 1.2907-.512 2.08-.512.7787 0 1.4667.1707 2.064.512.5973.3413 1.056.832 1.376 1.472.3307.6293.496 1.3653.496 2.208 0 .8427-.1653 1.5787-.496 2.208-.32.6293-.7787 1.1147-1.376 1.456-.5973.3413-1.2853.512-2.064.512zm-.016-1.28c.7467 0 1.3173-.2453 1.712-.736.3947-.4907.592-1.2107.592-2.16 0-.928-.2027-1.6427-.608-2.144-.3947-.5013-.9547-.752-1.68-.752-.736 0-1.3067.2507-1.712.752-.4053.5013-.608 1.216-.608 2.144 0 .9493.1973 1.6693.592 2.16.4053.4907.976.736 1.712.736zm12.8489-6.896V28h-1.568v-1.344c-.256.4693-.608.832-1.056 1.088-.448.2453-.9547.368-1.52.368-1.9414 0-2.912-1.0773-2.912-3.232v-4.944h1.6v4.928c0 .6613.1333 1.152.4 1.472.2773.3093.6933.464 1.248.464.6613 0 1.1893-.2133 1.584-.64.4053-.4267.608-.992.608-1.696v-4.528h1.616zm4.463 1.248v4.048c0 .5547.1173.9493.352 1.184.2453.224.5813.336 1.008.336.2773 0 .56-.0427.848-.128v1.312c-.352.1173-.752.176-1.2.176-.832 0-1.4774-.2347-1.936-.704-.4587-.4693-.688-1.152-.688-2.048v-4.176h-1.568v-1.248h1.568V17.92l1.616-.56v2.576h2.224v1.248h-2.224z" fill="#fff"/></svg>