<svg width="101" height="37" viewBox="0 0 101 37" fill="none" xmlns="http://www.w3.org/2000/svg"><path d="M27.3594 25.128c-1.0986 0-2.0586-.2347-2.88-.704-.8106-.48-1.4346-1.1573-1.872-2.032-.4373-.8747-.656-1.9093-.656-3.104 0-1.184.2187-2.2133.656-3.088.4374-.8747 1.0614-1.5467 1.872-2.016.8214-.4693 1.7814-.704 2.88-.704.7787 0 1.4987.1227 2.16.368.672.2347 1.2374.5813 1.696 1.04l-.576 1.216c-.5333-.4373-1.0613-.752-1.584-.944-.512-.2027-1.072-.304-1.68-.304-1.184 0-2.1013.384-2.752 1.152-.64.768-.96 1.8613-.96 3.28 0 1.4293.32 2.5333.96 3.312.6507.768 1.568 1.152 2.752 1.152.608 0 1.168-.096 1.68-.288.5227-.2027 1.0507-.5227 1.584-.96l.576 1.216c-.4586.4587-1.024.8107-1.696 1.056-.6613.2347-1.3813.352-2.16.352zm9.1013-.016c-.7893 0-1.4827-.1707-2.08-.512-.5973-.3413-1.0613-.8267-1.392-1.456-.32-.6293-.48-1.3653-.48-2.208 0-.8427.16-1.5787.48-2.208.3307-.64.7947-1.1307 1.392-1.472.5973-.3413 1.2907-.512 2.08-.512.7787 0 1.4667.1707 2.064.512.5973.3413 1.056.832 1.376 1.472.3307.6293.496 1.3653.496 2.208 0 .8427-.1653 1.5787-.496 2.208-.32.6293-.7787 1.1147-1.376 1.456-.5973.3413-1.2853.512-2.064.512zm-.016-1.28c.7467 0 1.3173-.2453 1.712-.736.3947-.4907.592-1.2107.592-2.16 0-.928-.2027-1.6427-.608-2.144-.3947-.5013-.9547-.752-1.68-.752-.736 0-1.3067.2507-1.712.752-.4053.5013-.608 1.216-.608 2.144 0 .9493.1973 1.6693.592 2.16.4053.4907.976.736 1.712.736zm10.1289-7.088c1.9306 0 2.896 1.0773 2.896 3.232V25h-1.616v-4.928c0-.704-.1387-1.216-.416-1.536-.2667-.32-.6987-.48-1.296-.48-.6827 0-1.232.2133-1.648.64-.4054.4267-.608.9973-.608 1.712V25h-1.6v-5.792c0-.8427-.0427-1.6-.128-2.272h1.504l.144 1.392c.256-.512.624-.9013 1.104-1.168.4906-.2773 1.0453-.416 1.664-.416zm7.2923 1.44v4.048c0 .5547.1174.9493.352 1.184.2454.224.5814.336 1.008.336.2774 0 .56-.0427.848-.128v1.312c-.352.1173-.752.176-1.2.176-.832 0-1.4773-.2347-1.936-.704-.4586-.4693-.688-1.152-.688-2.048v-4.176h-1.568v-1.248h1.568V14.92l1.616-.56v2.576h2.224v1.248h-2.224zm11.0925-1.248V25h-1.6v-1.376c-.2346.48-.5866.848-1.056 1.104-.4586.256-.9973.384-1.616.384-.7146 0-1.344-.1707-1.888-.512-.5333-.3413-.9493-.8213-1.248-1.44-.2986-.6293-.448-1.36-.448-2.192 0-.832.1494-1.568.448-2.208.3094-.64.736-1.136 1.28-1.488.544-.352 1.1627-.528 1.856-.528.6187 0 1.1574.1333 1.616.4.4587.256.8107.624 1.056 1.104v-1.312h1.6zm-3.888 6.896c.7254 0 1.2854-.2507 1.68-.752.4054-.512.608-1.2267.608-2.144 0-.928-.2026-1.6427-.608-2.144-.3946-.5013-.96-.752-1.696-.752-.7253 0-1.296.2613-1.712.784-.4053.512-.608 1.2267-.608 2.144 0 .9067.2027 1.6107.608 2.112.416.5013.992.752 1.728.752zm9.766 1.28c-.8106 0-1.52-.1707-2.128-.512-.5973-.3413-1.056-.8213-1.376-1.44-.32-.6293-.48-1.36-.48-2.192 0-.832.1654-1.568.496-2.208.3414-.64.816-1.136 1.424-1.488.608-.352 1.3174-.528 2.128-.528.5654 0 1.1094.096 1.632.288.5227.1813.944.432 1.264.752l-.496 1.168c-.7573-.5973-1.52-.896-2.288-.896-.7786 0-1.3866.256-1.824.768-.4373.5013-.656 1.2107-.656 2.128s.2187 1.6267.656 2.128c.4374.4907 1.0454.736 1.824.736.7894 0 1.552-.2987 2.288-.896l.496 1.168c-.3413.32-.7786.5707-1.312.752-.5226.1813-1.072.272-1.648.272zm6.6077-6.928v4.048c0 .5547.1173.9493.352 1.184.2453.224.5813.336 1.008.336.2773 0 .56-.0427.848-.128v1.312c-.352.1173-.752.176-1.2.176-.832 0-1.4774-.2347-1.936-.704-.4587-.4693-.688-1.152-.688-2.048v-4.176h-1.568v-1.248h1.568V14.92l1.616-.56v2.576h2.224v1.248h-2.224z" fill="#fff"/></svg>