<svg width="543" height="25" viewBox="0 0 543 25" fill="none" xmlns="http://www.w3.org/2000/svg"><path d="M8.33602 20.16c-1.37334 0-2.57334-.2933-3.6-.88-1.01334-.6-1.79334-1.4467-2.34-2.54-.54667-1.0933-.82-2.3867-.82-3.88 0-1.48.27333-2.7667.82-3.86.54666-1.09333 1.32666-1.93333 2.34-2.52 1.02666-.58667 2.22666-.88 3.6-.88.97333 0 1.87328.15333 2.69998.46.84.29333 1.5467.72667 2.12 1.3l-.72 1.52c-.6667-.54667-1.3267-.94-1.98-1.18-.63998-.25333-1.33998-.38-2.09998-.38-1.48 0-2.62667.48-3.44 1.44-.8.96-1.2 2.3267-1.2 4.1 0 1.7867.4 3.1667 1.2 4.14.81333.96 1.96 1.44 3.44 1.44.76 0 1.46-.12 2.09998-.36.6533-.2533 1.3133-.6533 1.98-1.2l.72 1.52c-.5733.5733-1.28 1.0133-2.12 1.32-.8267.2933-1.72665.44-2.69998.44zM24.1326 9.92V20h-1.96v-1.68c-.32.5867-.76 1.04-1.32 1.36-.56.3067-1.1934.46-1.9.46-2.4267 0-3.64-1.3467-3.64-4.04V9.92h2v6.16c0 .8267.1666 1.44.5 1.84.3466.3867.8666.58 1.56.58.8266 0 1.4866-.2667 1.98-.8.5066-.5333.76-1.24.76-2.12V9.92h2.02zm5.5787 1.56v5.06c0 .6933.1467 1.1867.44 1.48.3067.28.7267.42 1.26.42.3467 0 .7-.0533 1.06-.16v1.64c-.44.1467-.94.22-1.5.22-1.04 0-1.8466-.2933-2.42-.88-.5733-.5867-.86-1.44-.86-2.56v-5.22h-1.96V9.92h1.96V7.4l2.02-.7v3.22h2.78v1.56h-2.78zM48.849 9.92l-4.7 10.9c-.52 1.1867-1.1733 2.0533-1.96 2.6-.7733.56-1.7333.9333-2.88 1.12l-.44-1.56c.9467-.2133 1.66-.4933 2.14-.84.4933-.3333.8867-.84 1.18-1.52l.36-.84-4.24-9.86h2.14l3.16 7.8 3.22-7.8h2.02zm5.7659 10.22c-.9866 0-1.8533-.2133-2.6-.64-.7466-.4267-1.3266-1.0333-1.74-1.82-.4-.7867-.6-1.7067-.6-2.76 0-1.0533.2-1.9733.6-2.76.4134-.8.9934-1.4133 1.74-1.84.7467-.42667 1.6134-.64 2.6-.64.9734 0 1.8334.21333 2.58.64.7467.4267 1.32 1.04 1.72 1.84.4134.7867.62 1.7067.62 2.76 0 1.0533-.2066 1.9733-.62 2.76-.4.7867-.9733 1.3933-1.72 1.82-.7466.4267-1.6066.64-2.58.64zm-.02-1.6c.9334 0 1.6467-.3067 2.14-.92.4934-.6133.74-1.5133.74-2.7 0-1.16-.2533-2.0533-.76-2.68-.4933-.6267-1.1933-.94-2.1-.94-.92 0-1.6333.3133-2.14.94-.5066.6267-.76 1.52-.76 2.68 0 1.1867.2467 2.0867.74 2.7.5067.6133 1.22.92 2.14.92zM70.656 9.92V20h-1.96v-1.68c-.32.5867-.76 1.04-1.32 1.36-.56.3067-1.1933.46-1.9.46-2.4267 0-3.64-1.3467-3.64-4.04V9.92h2v6.16c0 .8267.1667 1.44.5 1.84.3467.3867.8667.58 1.56.58.8267 0 1.4867-.2667 1.98-.8.5067-.5333.76-1.24.76-2.12V9.92h2.02zm7.9788-.24c.3066 0 .6266.04667.96.14l-.04 1.84c-.36-.1333-.7534-.2-1.18-.2-.92 0-1.6134.28-2.08.84-.4534.5467-.68 1.24-.68 2.08V20h-2v-7.24c0-1.0533-.0534-2-.16-2.84h1.88l.18 1.82c.2666-.6667.68-1.1733 1.24-1.52.56-.36 1.1866-.54 1.88-.54zM95.0663 15h-7.2c.0667 2.36 1.14 3.54 3.22 3.54 1.16 0 2.22-.38 3.18-1.14l.62 1.44c-.4533.4-1.0333.72-1.74.96-.6933.2267-1.3933.34-2.1.34-1.6133 0-2.88-.46-3.8-1.38-.92-.9333-1.38-2.2067-1.38-3.82 0-1.0267.2-1.94.6-2.74.4134-.8.9867-1.42 1.72-1.86.7334-.44 1.5667-.66 2.5-.66 1.36 0 2.4267.44 3.2 1.32.7867.88 1.18 2.1 1.18 3.66V15zm-4.34-3.82c-.76 0-1.38.2267-1.86.68-.48.4533-.7866 1.1-.92 1.94h5.34c-.08-.8533-.34-1.5-.78-1.94-.44-.4533-1.0333-.68-1.78-.68zM106.587 20h-2.4l-2.98-3.72L98.2666 20h-2.42l4.2004-5.18-3.9604-4.9h2.42l2.7004 3.44 2.72-3.44h2.44l-3.96 4.9 4.18 5.18zm6.86-10.32c.867 0 1.64.22 2.32.66.68.44 1.207 1.06 1.58 1.86.387.8.58 1.72.58 2.76 0 1.04-.187 1.9533-.56 2.74-.373.7733-.9 1.3733-1.58 1.8-.68.4267-1.46.64-2.34.64-.773 0-1.453-.16-2.04-.48-.573-.3333-1.007-.8067-1.3-1.42v6.08h-2V12.76c0-1.0533-.053-2-.16-2.84h1.88l.2 1.86c.267-.6667.7-1.18 1.3-1.54.6-.37333 1.307-.56 2.12-.56zm-.46 8.86c.907 0 1.613-.3133 2.12-.94.507-.6267.76-1.5067.76-2.64 0-1.1467-.253-2.04-.76-2.68-.507-.6533-1.213-.98-2.12-.98-.933 0-1.647.3133-2.14.94-.493.6267-.74 1.52-.74 2.68 0 1.16.247 2.0533.74 2.68.507.6267 1.22.94 2.14.94zM128.894 15h-7.2c.067 2.36 1.14 3.54 3.22 3.54 1.16 0 2.22-.38 3.18-1.14l.62 1.44c-.453.4-1.033.72-1.74.96-.693.2267-1.393.34-2.1.34-1.613 0-2.88-.46-3.8-1.38-.92-.9333-1.38-2.2067-1.38-3.82 0-1.0267.2-1.94.6-2.74.414-.8.987-1.42 1.72-1.86.734-.44 1.567-.66 2.5-.66 1.36 0 2.427.44 3.2 1.32.787.88 1.18 2.1 1.18 3.66V15zm-4.34-3.82c-.76 0-1.38.2267-1.86.68-.48.4533-.786 1.1-.92 1.94h5.34c-.08-.8533-.34-1.5-.78-1.94-.44-.4533-1.033-.68-1.78-.68zm12.018-1.5c2.414 0 3.62 1.3467 3.62 4.04V20h-2.02v-6.16c0-.88-.173-1.52-.52-1.92-.333-.4-.873-.6-1.62-.6-.853 0-1.54.2667-2.06.8-.506.5333-.76 1.2467-.76 2.14V20h-2v-7.24c0-1.0533-.053-2-.16-2.84h1.88l.18 1.74c.32-.64.78-1.1267 1.38-1.46.614-.34667 1.307-.52 2.08-.52zm10.016 10.46c-1.76 0-3.147-.4267-4.16-1.28l.6-1.46c1.053.8 2.26 1.2 3.62 1.2.693 0 1.22-.1133 1.58-.34.36-.24.54-.5733.54-1 0-.36-.127-.64-.38-.84-.24-.2133-.653-.3933-1.24-.54l-1.68-.4c-.88-.1867-1.553-.5133-2.02-.98-.453-.48-.68-1.0733-.68-1.78 0-.9067.36-1.64 1.08-2.2.733-.56 1.7-.84 2.9-.84.72 0 1.4.11333 2.04.34.653.2267 1.207.5467 1.66.96l-.62 1.42c-.973-.7733-2-1.16-3.08-1.16-.653 0-1.16.1267-1.52.38-.36.24-.54.58-.54 1.02 0 .3467.113.6267.34.84.227.2133.587.38 1.08.5l1.72.42c.96.2133 1.667.5533 2.12 1.02.467.4533.7 1.0467.7 1.78 0 .9067-.367 1.6267-1.1 2.16-.72.52-1.707.78-2.96.78zM161.629 15h-7.2c.066 2.36 1.14 3.54 3.22 3.54 1.16 0 2.22-.38 3.18-1.14l.62 1.44c-.454.4-1.034.72-1.74.96-.694.2267-1.394.34-2.1.34-1.614 0-2.88-.46-3.8-1.38-.92-.9333-1.38-2.2067-1.38-3.82 0-1.0267.2-1.94.6-2.74.413-.8.986-1.42 1.72-1.86.733-.44 1.566-.66 2.5-.66 1.36 0 2.426.44 3.2 1.32.786.88 1.18 2.1 1.18 3.66V15zm-4.34-3.82c-.76 0-1.38.2267-1.86.68-.48.4533-.787 1.1-.92 1.94h5.34c-.08-.8533-.34-1.5-.78-1.94-.44-.4533-1.034-.68-1.78-.68zm10.178 8.96c-1.76 0-3.147-.4267-4.16-1.28l.6-1.46c1.053.8 2.26 1.2 3.62 1.2.693 0 1.22-.1133 1.58-.34.36-.24.54-.5733.54-1 0-.36-.127-.64-.38-.84-.24-.2133-.654-.3933-1.24-.54l-1.68-.4c-.88-.1867-1.554-.5133-2.02-.98-.454-.48-.68-1.0733-.68-1.78 0-.9067.36-1.64 1.08-2.2.733-.56 1.7-.84 2.9-.84.72 0 1.4.11333 2.04.34.653.2267 1.206.5467 1.66.96l-.62 1.42c-.974-.7733-2-1.16-3.08-1.16-.654 0-1.16.1267-1.52.38-.36.24-.54.58-.54 1.02 0 .3467.113.6267.34.84.226.2133.586.38 1.08.5l1.72.42c.96.2133 1.666.5533 2.12 1.02.466.4533.7 1.0467.7 1.78 0 .9067-.367 1.6267-1.1 2.16-.72.52-1.707.78-2.96.78zM184.58 9.68c.88 0 1.66.21333 2.34.64.68.4267 1.206 1.0333 1.58 1.82.373.7867.56 1.7.56 2.74 0 1.04-.194 1.96-.58 2.76-.374.7867-.9 1.4-1.58 1.84-.68.44-1.454.66-2.32.66-.774 0-1.454-.16-2.04-.48-.574-.3333-1.007-.8067-1.3-1.42V20h-2V5.28h2v6.3c.293-.6.726-1.0667 1.3-1.4.586-.33333 1.266-.5 2.04-.5zm-.46 8.86c.906 0 1.613-.32 2.12-.96.506-.6533.76-1.5533.76-2.7 0-1.1333-.254-2.0133-.76-2.64-.507-.6267-1.214-.94-2.12-.94-.92 0-1.634.3133-2.14.94-.494.6267-.74 1.52-.74 2.68 0 1.16.246 2.0533.74 2.68.506.6267 1.22.94 2.14.94zm16.331-8.62l-4.7 10.9c-.52 1.1867-1.174 2.0533-1.96 2.6-.774.56-1.734.9333-2.88 1.12l-.44-1.56c.946-.2133 1.66-.4933 2.14-.84.493-.3333.886-.84 1.18-1.52l.36-.84-4.24-9.86h2.14l3.16 7.8 3.22-7.8h2.02zm16.194 0v9.9c0 1.5333-.406 2.6867-1.22 3.46-.8.7867-1.993 1.18-3.58 1.18-1.533 0-2.873-.3333-4.02-1l.34-1.58c.627.3333 1.227.58 1.8.74.587.16 1.207.24 1.86.24 1.88 0 2.82-.96 2.82-2.88V17.8c-.306.5867-.753 1.0533-1.34 1.4-.586.3333-1.266.5-2.04.5-.88 0-1.666-.2067-2.36-.62-.68-.4133-1.213-1-1.6-1.76-.373-.76-.56-1.6333-.56-2.62 0-.9867.187-1.86.56-2.62.387-.76.92-1.3467 1.6-1.76.694-.42667 1.48-.64 2.36-.64.774 0 1.454.16667 2.04.5.587.32 1.034.78 1.34 1.38V9.92h2zm-4.92 8.16c.907 0 1.62-.3 2.14-.9.52-.6.78-1.4267.78-2.48s-.26-1.88-.78-2.48c-.506-.6133-1.22-.92-2.14-.92-.906 0-1.626.3067-2.16.92-.52.6-.78 1.4267-.78 2.48 0 1.04.26 1.8667.78 2.48.534.6 1.254.9 2.16.9zM228.211 15h-7.2c.067 2.36 1.14 3.54 3.22 3.54 1.16 0 2.22-.38 3.18-1.14l.62 1.44c-.453.4-1.033.72-1.74.96-.693.2267-1.393.34-2.1.34-1.613 0-2.88-.46-3.8-1.38-.92-.9333-1.38-2.2067-1.38-3.82 0-1.0267.2-1.94.6-2.74.413-.8.987-1.42 1.72-1.86.733-.44 1.567-.66 2.5-.66 1.36 0 2.427.44 3.2 1.32.787.88 1.18 2.1 1.18 3.66V15zm-4.34-3.82c-.76 0-1.38.2267-1.86.68-.48.4533-.787 1.1-.92 1.94h5.34c-.08-.8533-.34-1.5-.78-1.94-.44-.4533-1.033-.68-1.78-.68zm9.18.3v5.06c0 .6933.147 1.1867.44 1.48.307.28.727.42 1.26.42.347 0 .7-.0533 1.06-.16v1.64c-.44.1467-.94.22-1.5.22-1.04 0-1.846-.2933-2.42-.88-.573-.5867-.86-1.44-.86-2.56v-5.22h-1.96V9.92h1.96V7.4l2.02-.7v3.22h2.78v1.56h-2.78zm7.246 0v5.06c0 .6933.147 1.1867.44 1.48.307.28.727.42 1.26.42.347 0 .7-.0533 1.06-.16v1.64c-.44.1467-.94.22-1.5.22-1.04 0-1.846-.2933-2.42-.88-.573-.5867-.86-1.44-.86-2.56v-5.22h-1.96V9.92h1.96V7.4l2.02-.7v3.22h2.78v1.56h-2.78zm4.646-1.56h2V20h-2V9.92zm2.16-4.4v2.12h-2.34V5.52h2.34zm8.161 4.16c2.413 0 3.62 1.3467 3.62 4.04V20h-2.02v-6.16c0-.88-.174-1.52-.52-1.92-.334-.4-.874-.6-1.62-.6-.854 0-1.54.2667-2.06.8-.507.5333-.76 1.2467-.76 2.14V20h-2v-7.24c0-1.0533-.054-2-.16-2.84h1.88l.18 1.74c.32-.64.78-1.1267 1.38-1.46.613-.34667 1.306-.52 2.08-.52zm15.795.24v9.9c0 1.5333-.406 2.6867-1.22 3.46-.8.7867-1.993 1.18-3.58 1.18-1.533 0-2.873-.3333-4.02-1l.34-1.58c.627.3333 1.227.58 1.8.74.587.16 1.207.24 1.86.24 1.88 0 2.82-.96 2.82-2.88V17.8c-.306.5867-.753 1.0533-1.34 1.4-.586.3333-1.266.5-2.04.5-.88 0-1.666-.2067-2.36-.62-.68-.4133-1.213-1-1.6-1.76-.373-.76-.56-1.6333-.56-2.62 0-.9867.187-1.86.56-2.62.387-.76.92-1.3467 1.6-1.76.694-.42667 1.48-.64 2.36-.64.774 0 1.454.16667 2.04.5.587.32 1.034.78 1.34 1.38V9.92h2zm-4.92 8.16c.907 0 1.62-.3 2.14-.9.52-.6.78-1.4267.78-2.48s-.26-1.88-.78-2.48c-.506-.6133-1.22-.92-2.14-.92-.906 0-1.626.3067-2.16.92-.52.6-.78 1.4267-.78 2.48 0 1.04.26 1.8667.78 2.48.534.6 1.254.9 2.16.9zm17.558 2.06c-.987 0-1.853-.2133-2.6-.64-.747-.4267-1.327-1.0333-1.74-1.82-.4-.7867-.6-1.7067-.6-2.76 0-1.0533.2-1.9733.6-2.76.413-.8.993-1.4133 1.74-1.84.747-.42667 1.613-.64 2.6-.64.973 0 1.833.21333 2.58.64.747.4267 1.32 1.04 1.72 1.84.413.7867.62 1.7067.62 2.76 0 1.0533-.207 1.9733-.62 2.76-.4.7867-.973 1.3933-1.72 1.82-.747.4267-1.607.64-2.58.64zm-.02-1.6c.933 0 1.647-.3067 2.14-.92.493-.6133.74-1.5133.74-2.7 0-1.16-.253-2.0533-.76-2.68-.493-.6267-1.193-.94-2.1-.94-.92 0-1.633.3133-2.14.94-.507.6267-.76 1.52-.76 2.68 0 1.1867.247 2.0867.74 2.7.507.6133 1.22.92 2.14.92zm12.661-8.86c2.413 0 3.62 1.3467 3.62 4.04V20h-2.02v-6.16c0-.88-.173-1.52-.52-1.92-.333-.4-.873-.6-1.62-.6-.853 0-1.54.2667-2.06.8-.507.5333-.76 1.2467-.76 2.14V20h-2v-7.24c0-1.0533-.053-2-.16-2.84h1.88l.18 1.74c.32-.64.78-1.1267 1.38-1.46.613-.34667 1.307-.52 2.08-.52zM311.434 15h-7.2c.066 2.36 1.14 3.54 3.22 3.54 1.16 0 2.22-.38 3.18-1.14l.62 1.44c-.454.4-1.034.72-1.74.96-.694.2267-1.394.34-2.1.34-1.614 0-2.88-.46-3.8-1.38-.92-.9333-1.38-2.2067-1.38-3.82 0-1.0267.2-1.94.6-2.74.413-.8.986-1.42 1.72-1.86.733-.44 1.566-.66 2.5-.66 1.36 0 2.426.44 3.2 1.32.786.88 1.18 2.1 1.18 3.66V15zm-4.34-3.82c-.76 0-1.38.2267-1.86.68-.48.4533-.787 1.1-.92 1.94h5.34c-.08-.8533-.34-1.5-.78-1.94-.44-.4533-1.034-.68-1.78-.68zm16.33 8.96c-.987 0-1.854-.2133-2.6-.64-.747-.4267-1.327-1.0333-1.74-1.82-.4-.7867-.6-1.7067-.6-2.76 0-1.0533.2-1.9733.6-2.76.413-.8.993-1.4133 1.74-1.84.746-.42667 1.613-.64 2.6-.64.973 0 1.833.21333 2.58.64.746.4267 1.32 1.04 1.72 1.84.413.7867.62 1.7067.62 2.76 0 1.0533-.207 1.9733-.62 2.76-.4.7867-.974 1.3933-1.72 1.82-.747.4267-1.607.64-2.58.64zm-.02-1.6c.933 0 1.646-.3067 2.14-.92.493-.6133.74-1.5133.74-2.7 0-1.16-.254-2.0533-.76-2.68-.494-.6267-1.194-.94-2.1-.94-.92 0-1.634.3133-2.14.94-.507.6267-.76 1.52-.76 2.68 0 1.1867.246 2.0867.74 2.7.506.6133 1.22.92 2.14.92zM334.926 6.9c-1.107 0-1.66.63333-1.66 1.9v1.12h2.36v1.56h-2.36V20h-2.02v-8.52h-1.94V9.92h1.94V8.64c0-1.12.28-1.97333.84-2.56.573-.58667 1.373-.88 2.4-.88.533 0 1.02.06667 1.46.2v1.66c-.36-.10667-.7-.16-1.02-.16zm12.423 13.24c-.986 0-1.853-.2133-2.6-.64-.746-.4267-1.326-1.0333-1.74-1.82-.4-.7867-.6-1.7067-.6-2.76 0-1.0533.2-1.9733.6-2.76.414-.8.994-1.4133 1.74-1.84.747-.42667 1.614-.64 2.6-.64.974 0 1.834.21333 2.58.64.747.4267 1.32 1.04 1.72 1.84.414.7867.62 1.7067.62 2.76 0 1.0533-.206 1.9733-.62 2.76-.4.7867-.973 1.3933-1.72 1.82-.746.4267-1.606.64-2.58.64zm-.02-1.6c.934 0 1.647-.3067 2.14-.92.494-.6133.74-1.5133.74-2.7 0-1.16-.253-2.0533-.76-2.68-.493-.6267-1.193-.94-2.1-.94-.92 0-1.633.3133-2.14.94-.506.6267-.76 1.52-.76 2.68 0 1.1867.247 2.0867.74 2.7.507.6133 1.22.92 2.14.92zm16.061-8.62V20h-1.96v-1.68c-.32.5867-.76 1.04-1.32 1.36-.56.3067-1.193.46-1.9.46-2.426 0-3.64-1.3467-3.64-4.04V9.92h2v6.16c0 .8267.167 1.44.5 1.84.347.3867.867.58 1.56.58.827 0 1.487-.2667 1.98-.8.507-.5333.76-1.24.76-2.12V9.92h2.02zm7.979-.24c.307 0 .627.04667.96.14l-.04 1.84c-.36-.1333-.753-.2-1.18-.2-.92 0-1.613.28-2.08.84-.453.5467-.68 1.24-.68 2.08V20h-2v-7.24c0-1.0533-.053-2-.16-2.84h1.88l.18 1.82c.267-.6667.68-1.1733 1.24-1.52.56-.36 1.187-.54 1.88-.54zm17.052.24V20h-2v-1.72c-.294.6-.734 1.06-1.32 1.38-.574.32-1.247.48-2.02.48-.894 0-1.68-.2133-2.36-.64-.667-.4267-1.187-1.0267-1.56-1.8-.374-.7867-.56-1.7-.56-2.74 0-1.04.186-1.96.56-2.76.386-.8.92-1.42 1.6-1.86.68-.44 1.453-.66 2.32-.66.773 0 1.446.16667 2.02.5.573.32 1.013.78 1.32 1.38V9.92h2zm-4.86 8.62c.906 0 1.606-.3133 2.1-.94.506-.64.76-1.5333.76-2.68 0-1.16-.254-2.0533-.76-2.68-.494-.6267-1.2-.94-2.12-.94-.907 0-1.62.3267-2.14.98-.507.64-.76 1.5333-.76 2.68 0 1.1333.253 2.0133.76 2.64.52.6267 1.24.94 2.16.94zM395.648 6.9c-1.106 0-1.66.63333-1.66 1.9v1.12h2.36v1.56h-2.36V20h-2.02v-8.52h-1.94V9.92h1.94V8.64c0-1.12.28-1.97333.84-2.56.574-.58667 1.374-.88 2.4-.88.534 0 1.02.06667 1.46.2v1.66c-.36-.10667-.7-.16-1.02-.16zm6.934 0c-1.107 0-1.66.63333-1.66 1.9v1.12h2.36v1.56h-2.36V20h-2.02v-8.52h-1.94V9.92h1.94V8.64c0-1.12.28-1.97333.84-2.56.573-.58667 1.373-.88 2.4-.88.533 0 1.02.06667 1.46.2v1.66c-.36-.10667-.7-.16-1.02-.16zm6.994 13.24c-.987 0-1.853-.2133-2.6-.64-.747-.4267-1.327-1.0333-1.74-1.82-.4-.7867-.6-1.7067-.6-2.76 0-1.0533.2-1.9733.6-2.76.413-.8.993-1.4133 1.74-1.84.747-.42667 1.613-.64 2.6-.64.973 0 1.833.21333 2.58.64.747.4267 1.32 1.04 1.72 1.84.413.7867.62 1.7067.62 2.76 0 1.0533-.207 1.9733-.62 2.76-.4.7867-.973 1.3933-1.72 1.82-.747.4267-1.607.64-2.58.64zm-.02-1.6c.933 0 1.647-.3067 2.14-.92.493-.6133.74-1.5133.74-2.7 0-1.16-.253-2.0533-.76-2.68-.493-.6267-1.193-.94-2.1-.94-.92 0-1.633.3133-2.14.94-.507.6267-.76 1.52-.76 2.68 0 1.1867.247 2.0867.74 2.7.507.6133 1.22.92 2.14.92zm12.321-8.86c.307 0 .627.04667.96.14l-.04 1.84c-.36-.1333-.753-.2-1.18-.2-.92 0-1.613.28-2.08.84-.453.5467-.68 1.24-.68 2.08V20h-2v-7.24c0-1.0533-.053-2-.16-2.84h1.88l.18 1.82c.267-.6667.68-1.1733 1.24-1.52.56-.36 1.187-.54 1.88-.54zm11.524-4.4V20h-2v-1.72c-.293.6-.733 1.06-1.32 1.38-.573.32-1.246.48-2.02.48-.866 0-1.64-.22-2.32-.66-.68-.44-1.213-1.0533-1.6-1.84-.373-.8-.56-1.72-.56-2.76 0-1.04.187-1.9533.56-2.74.374-.7867.894-1.3933 1.56-1.82.68-.42667 1.467-.64 2.36-.64.76 0 1.427.16 2 .48.587.32 1.027.7733 1.32 1.36V5.28h2.02zm-4.88 13.26c.92 0 1.627-.3133 2.12-.94.507-.64.76-1.5333.76-2.68s-.253-2.0333-.76-2.66c-.493-.64-1.193-.96-2.1-.96-.92 0-1.64.3133-2.16.94-.506.6267-.76 1.5067-.76 2.64 0 1.1467.254 2.0467.76 2.7.52.64 1.234.96 2.14.96zm17.068-8.62V20h-2v-1.72c-.294.6-.734 1.06-1.32 1.38-.574.32-1.247.48-2.02.48-.894 0-1.68-.2133-2.36-.64-.667-.4267-1.187-1.0267-1.56-1.8-.374-.7867-.56-1.7-.56-2.74 0-1.04.186-1.96.56-2.76.386-.8.92-1.42 1.6-1.86.68-.44 1.453-.66 2.32-.66.773 0 1.446.16667 2.02.5.573.32 1.013.78 1.32 1.38V9.92h2zm-4.86 8.62c.906 0 1.606-.3133 2.1-.94.506-.64.76-1.5333.76-2.68 0-1.16-.254-2.0533-.76-2.68-.494-.6267-1.2-.94-2.12-.94-.907 0-1.62.3267-2.14.98-.507.64-.76 1.5333-.76 2.68 0 1.1333.253 2.0133.76 2.64.52.6267 1.24.94 2.16.94zm13.167-8.86c.88 0 1.66.21333 2.34.64.68.4267 1.207 1.0333 1.58 1.82.374.7867.56 1.7.56 2.74 0 1.04-.193 1.96-.58 2.76-.373.7867-.9 1.4-1.58 1.84-.68.44-1.453.66-2.32.66-.773 0-1.453-.16-2.04-.48-.573-.3333-1.006-.8067-1.3-1.42V20h-2V5.28h2v6.3c.294-.6.727-1.0667 1.3-1.4.587-.33333 1.267-.5 2.04-.5zm-.46 8.86c.907 0 1.614-.32 2.12-.96.507-.6533.76-1.5533.76-2.7 0-1.1333-.253-2.0133-.76-2.64-.506-.6267-1.213-.94-2.12-.94-.92 0-1.633.3133-2.14.94-.493.6267-.74 1.52-.74 2.68 0 1.16.247 2.0533.74 2.68.507.6267 1.22.94 2.14.94zm7.308-13.26h2V20h-2V5.28zM474.305 15h-7.2c.066 2.36 1.14 3.54 3.22 3.54 1.16 0 2.22-.38 3.18-1.14l.62 1.44c-.454.4-1.034.72-1.74.96-.694.2267-1.394.34-2.1.34-1.614 0-2.88-.46-3.8-1.38-.92-.9333-1.38-2.2067-1.38-3.82 0-1.0267.2-1.94.6-2.74.413-.8.986-1.42 1.72-1.86.733-.44 1.566-.66 2.5-.66 1.36 0 2.426.44 3.2 1.32.786.88 1.18 2.1 1.18 3.66V15zm-4.34-3.82c-.76 0-1.38.2267-1.86.68-.48.4533-.787 1.1-.92 1.94h5.34c-.08-.8533-.34-1.5-.78-1.94-.44-.4533-1.034-.68-1.78-.68zm17.35-1.5c2.413 0 3.62 1.3467 3.62 4.04V20h-2.02v-6.16c0-.88-.174-1.52-.52-1.92-.334-.4-.874-.6-1.62-.6-.854 0-1.54.2667-2.06.8-.507.5333-.76 1.2467-.76 2.14V20h-2V5.28h2v6.2c.333-.5867.793-1.0333 1.38-1.34.586-.30667 1.246-.46 1.98-.46zm10.835 10.46c-.987 0-1.853-.2133-2.6-.64-.747-.4267-1.327-1.0333-1.74-1.82-.4-.7867-.6-1.7067-.6-2.76 0-1.0533.2-1.9733.6-2.76.413-.8.993-1.4133 1.74-1.84.747-.42667 1.613-.64 2.6-.64.973 0 1.833.21333 2.58.64.747.4267 1.32 1.04 1.72 1.84.413.7867.62 1.7067.62 2.76 0 1.0533-.207 1.9733-.62 2.76-.4.7867-.973 1.3933-1.72 1.82-.747.4267-1.607.64-2.58.64zm-.02-1.6c.933 0 1.647-.3067 2.14-.92.493-.6133.74-1.5133.74-2.7 0-1.16-.253-2.0533-.76-2.68-.493-.6267-1.193-.94-2.1-.94-.92 0-1.633.3133-2.14.94-.507.6267-.76 1.52-.76 2.68 0 1.1867.247 2.0867.74 2.7.507.6133 1.22.92 2.14.92zm18.801-8.86c2.24 0 3.36 1.3467 3.36 4.04V20h-2.02v-6.18c0-.8667-.153-1.5-.46-1.9-.293-.4-.773-.6-1.44-.6-.773 0-1.386.2667-1.84.8-.44.5333-.66 1.26-.66 2.18V20h-2.02v-6.18c0-.8667-.153-1.5-.46-1.9-.293-.4-.773-.6-1.44-.6-.773 0-1.386.2667-1.84.8-.453.5333-.68 1.26-.68 2.18V20h-2v-7.24c0-1.0533-.053-2-.16-2.84h1.88l.18 1.68c.294-.6133.714-1.0867 1.26-1.42.547-.33333 1.187-.5 1.92-.5 1.56 0 2.58.6467 3.06 1.94.307-.6.754-1.0733 1.34-1.42.6-.34667 1.274-.52 2.02-.52zM531.785 15h-7.2c.067 2.36 1.14 3.54 3.22 3.54 1.16 0 2.22-.38 3.18-1.14l.62 1.44c-.453.4-1.033.72-1.74.96-.693.2267-1.393.34-2.1.34-1.613 0-2.88-.46-3.8-1.38-.92-.9333-1.38-2.2067-1.38-3.82 0-1.0267.2-1.94.6-2.74.413-.8.987-1.42 1.72-1.86.733-.44 1.567-.66 2.5-.66 1.36 0 2.427.44 3.2 1.32.787.88 1.18 2.1 1.18 3.66V15zm-4.34-3.82c-.76 0-1.38.2267-1.86.68-.48.4533-.787 1.1-.92 1.94h5.34c-.08-.8533-.34-1.5-.78-1.94-.44-.4533-1.033-.68-1.78-.68zm10.178 8.96c-1.76 0-3.147-.4267-4.16-1.28l.6-1.46c1.053.8 2.26 1.2 3.62 1.2.693 0 1.22-.1133 1.58-.34.36-.24.54-.5733.54-1 0-.36-.127-.64-.38-.84-.24-.2133-.653-.3933-1.24-.54l-1.68-.4c-.88-.1867-1.553-.5133-2.02-.98-.453-.48-.68-1.0733-.68-1.78 0-.9067.36-1.64 1.08-2.2.733-.56 1.7-.84 2.9-.84.72 0 1.4.11333 2.04.34.653.2267 1.207.5467 1.66.96l-.62 1.42c-.973-.7733-2-1.16-3.08-1.16-.653 0-1.16.1267-1.52.38-.36.24-.54.58-.54 1.02 0 .3467.113.6267.34.84.227.2133.587.38 1.08.5l1.72.42c.96.2133 1.667.5533 2.12 1.02.467.4533.7 1.0467.7 1.78 0 .9067-.367 1.6267-1.1 2.16-.72.52-1.707.78-2.96.78z" fill="#fff"/></svg>