<svg width="1038" height="59" viewBox="0 0 1038 59" fill="none" xmlns="http://www.w3.org/2000/svg"><path d="M933.188 3.07692H1032c2.76 0 5 2.23857 5 5V51.9231c0 2.7614-2.24 5-5 5h-98.812V3.07692z" fill="#FFC30D"/><path d="M965.181 35.6665c-.885 0-1.696-.1174-2.432-.352-.725-.2347-1.355-.5867-1.888-1.056l.592-1.216c.555.448 1.131.7733 1.728.976.597.2026 1.269.304 2.016.304.853 0 1.515-.16 1.984-.48.469-.32.704-.7734.704-1.36 0-.4907-.219-.8587-.656-1.104-.437-.256-1.131-.4907-2.08-.704-.907-.192-1.648-.4107-2.224-.656-.576-.256-1.029-.592-1.36-1.008-.331-.4267-.496-.9707-.496-1.632 0-.6614.176-1.2427.528-1.744.352-.512.848-.9067 1.488-1.184.651-.288 1.397-.432 2.24-.432.8 0 1.547.1226 2.24.368.704.2453 1.291.592 1.76 1.04l-.592 1.216c-.523-.4374-1.061-.7574-1.616-.96-.555-.2134-1.147-.32-1.776-.32-.821 0-1.467.176-1.936.528-.469.3413-.704.8106-.704 1.408 0 .512.203.9013.608 1.168.416.2666 1.077.5066 1.984.72.949.2133 1.717.4373 2.304.672.587.2346 1.056.5546 1.408.96.352.4053.528.928.528 1.568 0 .6613-.176 1.2373-.528 1.728-.352.4906-.859.8746-1.52 1.152-.651.2666-1.419.4-2.304.4zm13.133-4.128h-5.76c.053 1.888.912 2.832 2.576 2.832.928 0 1.776-.304 2.544-.912l.496 1.152c-.363.32-.827.576-1.392.768-.555.1813-1.115.272-1.68.272-1.291 0-2.304-.368-3.04-1.104-.736-.7467-1.104-1.7654-1.104-3.056 0-.8214.16-1.552.48-2.192.331-.64.789-1.136 1.376-1.488.587-.352 1.253-.528 2-.528 1.088 0 1.941.352 2.56 1.056.629.704.944 1.68.944 2.928v.272zm-3.472-3.056c-.608 0-1.104.1813-1.488.544-.384.3626-.629.88-.736 1.552h4.272c-.064-.6827-.272-1.2-.624-1.552-.352-.3627-.827-.544-1.424-.544zm12.702-1.008v8.064h-1.6v-1.376c-.234.48-.586.848-1.056 1.104-.458.256-.997.384-1.616.384-.714 0-1.344-.1707-1.888-.512-.533-.3414-.949-.8214-1.248-1.44-.298-.6294-.448-1.36-.448-2.192 0-.832.15-1.568.448-2.208.31-.64.736-1.136 1.28-1.488.544-.352 1.163-.528 1.856-.528.619 0 1.158.1333 1.616.4.459.256.811.624 1.056 1.104v-1.312h1.6zm-3.888 6.896c.726 0 1.286-.2507 1.68-.752.406-.512.608-1.2267.608-2.144 0-.928-.202-1.6427-.608-2.144-.394-.5014-.96-.752-1.696-.752-.725 0-1.296.2613-1.712.784-.405.512-.608 1.2266-.608 2.144 0 .9066.203 1.6106.608 2.112.416.5013.992.752 1.728.752zm10.278-7.088c.246 0 .502.0373.768.112l-.032 1.472c-.288-.1067-.602-.16-.944-.16-.736 0-1.29.224-1.664.672-.362.4373-.544.992-.544 1.664v4.496h-1.6v-5.792c0-.8427-.042-1.6-.128-2.272h1.504l.144 1.456c.214-.5334.544-.9387.992-1.216.448-.288.95-.432 1.504-.432zm5.348 8.368c-.811 0-1.52-.1707-2.128-.512-.598-.3414-1.056-.8214-1.376-1.44-.32-.6294-.48-1.36-.48-2.192 0-.832.165-1.568.496-2.208.341-.64.816-1.136 1.424-1.488.608-.352 1.317-.528 2.128-.528.565 0 1.114.096 1.634.288.52.1813.94.432 1.26.752l-.49 1.168c-.76-.5974-1.52-.896-2.292-.896-.779 0-1.387.256-1.824.768-.438.5013-.656 1.2106-.656 2.128 0 .9173.218 1.6266.656 2.128.437.4906 1.045.736 1.824.736.792 0 1.552-.2987 2.292-.896l.49 1.168c-.34.32-.78.5706-1.31.752-.52.1813-1.072.272-1.648.272zm8.768-8.368c1.93 0 2.9 1.0773 2.9 3.232v5.024h-1.62v-4.928c0-.704-.14-1.216-.42-1.536-.26-.32-.69-.48-1.29-.48-.68 0-1.23.2133-1.65.64-.41.4266-.61.9973-.61 1.712v4.592h-1.6v-11.776h1.6v4.96c.27-.4694.64-.8267 1.11-1.072.47-.2454.99-.368 1.58-.368z" fill="#370EA3"/><path d="M142.346 8.07693c0-2.76142 2.238-5 5-5h787.842V56.9231H147.346c-2.762 0-5-2.2386-5-5V8.07693z" fill="#fff"/><path d="M200.974 35.128c-.885 0-1.696-.1173-2.432-.352-.725-.2347-1.354-.5867-1.888-1.056l.592-1.216c.555.448 1.131.7733 1.728.976.598.2027 1.27.304 2.016.304.854 0 1.515-.16 1.984-.48.47-.32.704-.7733.704-1.36 0-.4907-.218-.8587-.656-1.104-.437-.256-1.13-.4907-2.08-.704-.906-.192-1.648-.4107-2.224-.656-.576-.256-1.029-.592-1.36-1.008-.33-.4267-.496-.9707-.496-1.632 0-.6613.176-1.2427.528-1.744.352-.512.848-.9067 1.488-1.184.651-.288 1.398-.432 2.24-.432.8 0 1.547.1227 2.24.368.704.2453 1.291.592 1.76 1.04l-.592 1.216c-.522-.4373-1.061-.7573-1.616-.96-.554-.2133-1.146-.32-1.776-.32-.821 0-1.466.176-1.936.528-.469.3413-.704.8107-.704 1.408 0 .512.203.9013.608 1.168.416.2667 1.078.5067 1.984.72.95.2133 1.718.4373 2.304.672.587.2347 1.056.5547 1.408.96.352.4053.528.928.528 1.568 0 .6613-.176 1.2373-.528 1.728-.352.4907-.858.8747-1.52 1.152-.65.2667-1.418.4-2.304.4zM214.107 31h-5.76c.054 1.888.912 2.832 2.576 2.832.928 0 1.776-.304 2.544-.912l.496 1.152c-.362.32-.826.576-1.392.768-.554.1813-1.114.272-1.68.272-1.29 0-2.304-.368-3.04-1.104-.736-.7467-1.104-1.7653-1.104-3.056 0-.8213.16-1.552.48-2.192.331-.64.79-1.136 1.376-1.488.587-.352 1.254-.528 2-.528 1.088 0 1.942.352 2.56 1.056.63.704.944 1.68.944 2.928V31zm-3.472-3.056c-.608 0-1.104.1813-1.488.544-.384.3627-.629.88-.736 1.552h4.272c-.064-.6827-.272-1.2-.624-1.552-.352-.3627-.826-.544-1.424-.544zm12.703-1.008V35h-1.6v-1.376c-.235.48-.587.848-1.056 1.104-.459.256-.998.384-1.616.384-.715 0-1.344-.1707-1.888-.512-.534-.3413-.95-.8213-1.248-1.44-.299-.6293-.448-1.36-.448-2.192 0-.832.149-1.568.448-2.208.309-.64.736-1.136 1.28-1.488.544-.352 1.162-.528 1.856-.528.618 0 1.157.1333 1.616.4.458.256.81.624 1.056 1.104v-1.312h1.6zm-3.888 6.896c.725 0 1.285-.2507 1.68-.752.405-.512.608-1.2267.608-2.144 0-.928-.203-1.6427-.608-2.144-.395-.5013-.96-.752-1.696-.752-.726 0-1.296.2613-1.712.784-.406.512-.608 1.2267-.608 2.144 0 .9067.202 1.6107.608 2.112.416.5013.992.752 1.728.752zm10.278-7.088c.245 0 .501.0373.768.112l-.032 1.472c-.288-.1067-.603-.16-.944-.16-.736 0-1.291.224-1.664.672-.363.4373-.544.992-.544 1.664V35h-1.6v-5.792c0-.8427-.043-1.6-.128-2.272h1.504l.144 1.456c.213-.5333.544-.9387.992-1.216.448-.288.949-.432 1.504-.432zm5.347 8.368c-.811 0-1.52-.1707-2.128-.512-.597-.3413-1.056-.8213-1.376-1.44-.32-.6293-.48-1.36-.48-2.192 0-.832.165-1.568.496-2.208.341-.64.816-1.136 1.424-1.488.608-.352 1.317-.528 2.128-.528.565 0 1.109.096 1.632.288.523.1813.944.432 1.264.752l-.496 1.168c-.757-.5973-1.52-.896-2.288-.896-.779 0-1.387.256-1.824.768-.437.5013-.656 1.2107-.656 2.128s.219 1.6267.656 2.128c.437.4907 1.045.736 1.824.736.789 0 1.552-.2987 2.288-.896l.496 1.168c-.341.32-.779.5707-1.312.752-.523.1813-1.072.272-1.648.272zm8.768-8.368c1.931 0 2.896 1.0773 2.896 3.232V35h-1.616v-4.928c0-.704-.138-1.216-.416-1.536-.266-.32-.698-.48-1.296-.48-.682 0-1.232.2133-1.648.64-.405.4267-.608.9973-.608 1.712V35h-1.6V23.224h1.6v4.96c.267-.4693.635-.8267 1.104-1.072.47-.2453.998-.368 1.584-.368zm13.734 0c.704 0 1.328.1707 1.872.512.544.3413.966.8267 1.264 1.456.299.6293.448 1.36.448 2.192 0 .832-.154 1.568-.464 2.208-.298.6293-.72 1.12-1.264 1.472-.544.352-1.162.528-1.856.528-.618 0-1.162-.128-1.632-.384-.458-.2667-.805-.6453-1.04-1.136V35h-1.6V23.224h1.6v5.04c.235-.48.582-.8533 1.04-1.12.47-.2667 1.014-.4 1.632-.4zm-.368 7.088c.726 0 1.291-.256 1.696-.768.406-.5227.608-1.2427.608-2.16 0-.9067-.202-1.6107-.608-2.112-.405-.5013-.97-.752-1.696-.752-.736 0-1.306.2507-1.712.752-.394.5013-.592 1.216-.592 2.144 0 .928.198 1.6427.592 2.144.406.5013.976.752 1.712.752zm13.065-6.896l-3.76 8.72c-.416.9493-.939 1.6427-1.568 2.08-.619.448-1.387.7467-2.304.896l-.352-1.248c.757-.1707 1.328-.3947 1.712-.672.395-.2667.709-.672.944-1.216l.288-.672-3.392-7.888h1.712l2.528 6.24 2.576-6.24h1.616zm5.516-3.712h1.6V35h-1.6V23.224zm7.44 11.888c-.789 0-1.482-.1707-2.08-.512-.597-.3413-1.061-.8267-1.392-1.456-.32-.6293-.48-1.3653-.48-2.208 0-.8427.16-1.5787.48-2.208.331-.64.795-1.1307 1.392-1.472.598-.3413 1.291-.512 2.08-.512.779 0 1.467.1707 2.064.512.598.3413 1.056.832 1.376 1.472.331.6293.496 1.3653.496 2.208 0 .8427-.165 1.5787-.496 2.208-.32.6293-.778 1.1147-1.376 1.456-.597.3413-1.285.512-2.064.512zm-.016-1.28c.747 0 1.318-.2453 1.712-.736.395-.4907.592-1.2107.592-2.16 0-.928-.202-1.6427-.608-2.144-.394-.5013-.954-.752-1.68-.752-.736 0-1.306.2507-1.712.752-.405.5013-.608 1.216-.608 2.144 0 .9493.198 1.6693.592 2.16.406.4907.976.736 1.712.736zm9.345 1.28c-.81 0-1.52-.1707-2.128-.512-.597-.3413-1.056-.8213-1.376-1.44-.32-.6293-.48-1.36-.48-2.192 0-.832.166-1.568.496-2.208.342-.64.816-1.136 1.424-1.488.608-.352 1.318-.528 2.128-.528.566 0 1.11.096 1.632.288.523.1813.944.432 1.264.752l-.496 1.168c-.757-.5973-1.52-.896-2.288-.896-.778 0-1.386.256-1.824.768-.437.5013-.656 1.2107-.656 2.128s.219 1.6267.656 2.128c.438.4907 1.046.736 1.824.736.79 0 1.552-.2987 2.288-.896l.496 1.168c-.341.32-.778.5707-1.312.752-.522.1813-1.072.272-1.648.272zm11.857-8.176V35h-1.6v-1.376c-.235.48-.587.848-1.056 1.104-.459.256-.998.384-1.616.384-.715 0-1.344-.1707-1.888-.512-.534-.3413-.95-.8213-1.248-1.44-.299-.6293-.448-1.36-.448-2.192 0-.832.149-1.568.448-2.208.309-.64.736-1.136 1.28-1.488.544-.352 1.162-.528 1.856-.528.618 0 1.157.1333 1.616.4.458.256.81.624 1.056 1.104v-1.312h1.6zm-3.888 6.896c.725 0 1.285-.2507 1.68-.752.405-.512.608-1.2267.608-2.144 0-.928-.203-1.6427-.608-2.144-.395-.5013-.96-.752-1.696-.752-.726 0-1.296.2613-1.712.784-.406.512-.608 1.2267-.608 2.144 0 .9067.202 1.6107.608 2.112.416.5013.992.752 1.728.752zm8.358-5.648v4.048c0 .5547.117.9493.352 1.184.245.224.581.336 1.008.336.277 0 .56-.0427.848-.128v1.312c-.352.1173-.752.176-1.2.176-.832 0-1.478-.2347-1.936-.704-.459-.4693-.688-1.152-.688-2.048v-4.176h-1.568v-1.248h1.568V24.92l1.616-.56v2.576h2.224v1.248h-2.224zm3.716-1.248h1.6V35h-1.6v-8.064zm1.728-3.52v1.696h-1.872v-1.696h1.872zm5.713 11.696c-.789 0-1.483-.1707-2.08-.512-.597-.3413-1.061-.8267-1.392-1.456-.32-.6293-.48-1.3653-.48-2.208 0-.8427.16-1.5787.48-2.208.331-.64.795-1.1307 1.392-1.472.597-.3413 1.291-.512 2.08-.512.779 0 1.467.1707 2.064.512.597.3413 1.056.832 1.376 1.472.331.6293.496 1.3653.496 2.208 0 .8427-.165 1.5787-.496 2.208-.32.6293-.779 1.1147-1.376 1.456-.597.3413-1.285.512-2.064.512zm-.016-1.28c.747 0 1.317-.2453 1.712-.736s.592-1.2107.592-2.16c0-.928-.203-1.6427-.608-2.144-.395-.5013-.955-.752-1.68-.752-.736 0-1.307.2507-1.712.752-.405.5013-.608 1.216-.608 2.144 0 .9493.197 1.6693.592 2.16.405.4907.976.736 1.712.736zm10.129-7.088c1.931 0 2.896 1.0773 2.896 3.232V35h-1.616v-4.928c0-.704-.139-1.216-.416-1.536-.267-.32-.699-.48-1.296-.48-.683 0-1.232.2133-1.648.64-.405.4267-.608.9973-.608 1.712V35h-1.6v-5.792c0-.8427-.043-1.6-.128-2.272h1.504l.144 1.392c.256-.512.624-.9013 1.104-1.168.491-.2773 1.045-.416 1.664-.416z" fill="#EAE9F3"/></svg>