<svg width="129" height="38" viewBox="0 0 129 38" fill="none" xmlns="http://www.w3.org/2000/svg"><rect y="1" width="123.327" height="35" rx="5" fill="#FFC30D"/><path d="M33.6768 18.952v5.376c-.48.2453-1.088.4427-1.824.592-.7254.1387-1.4667.208-2.224.208-1.152 0-2.1494-.2293-2.992-.688-.8427-.4693-1.488-1.1413-1.936-2.016-.4374-.8747-.656-1.92-.656-3.136 0-1.1947.2186-2.2293.656-3.104.448-.8747 1.0826-1.5413 1.904-2 .832-.4693 1.808-.704 2.928-.704.8 0 1.536.1227 2.208.368.6826.2347 1.264.576 1.744 1.024l-.592 1.232c-.544-.448-1.0774-.768-1.6-.96-.5227-.192-1.104-.288-1.744-.288-1.2374 0-2.1814.3787-2.832 1.136-.64.7573-.96 1.856-.96 3.296 0 1.4827.3306 2.608.992 3.376.6613.7573 1.6373 1.136 2.928 1.136.864 0 1.696-.128 2.496-.384v-3.2h-2.656v-1.264h4.16zM42.9464 21h-5.76c.0533 1.888.912 2.832 2.576 2.832.928 0 1.776-.304 2.544-.912l.496 1.152c-.3627.32-.8267.576-1.392.768-.5547.1813-1.1147.272-1.68.272-1.2907 0-2.304-.368-3.04-1.104-.736-.7467-1.104-1.7653-1.104-3.056 0-.8213.16-1.552.48-2.192.3307-.64.7893-1.136 1.376-1.488.5867-.352 1.2533-.528 2-.528 1.088 0 1.9413.352 2.56 1.056.6293.704.944 1.68.944 2.928V21zm-3.472-3.056c-.608 0-1.104.1813-1.488.544-.384.3627-.6293.88-.736 1.552h4.272c-.064-.6827-.272-1.2-.624-1.552-.352-.3627-.8267-.544-1.424-.544zm7.3442.24v4.048c0 .5547.1174.9493.352 1.184.2454.224.5814.336 1.008.336.2774 0 .56-.0427.848-.128v1.312c-.352.1173-.752.176-1.2.176-.832 0-1.4773-.2347-1.936-.704-.4586-.4693-.688-1.152-.688-2.048v-4.176h-1.568v-1.248h1.568V14.92l1.616-.56v2.576h2.224v1.248h-2.224zm11.8542 6.944c-.8854 0-1.696-.1173-2.432-.352-.7254-.2347-1.3547-.5867-1.888-1.056l.592-1.216c.5546.448 1.1306.7733 1.728.976.5973.2027 1.2693.304 2.016.304.8533 0 1.5146-.16 1.984-.48.4693-.32.704-.7733.704-1.36 0-.4907-.2187-.8587-.656-1.104-.4374-.256-1.1307-.4907-2.08-.704-.9067-.192-1.648-.4107-2.224-.656-.576-.256-1.0294-.592-1.36-1.008-.3307-.4267-.496-.9707-.496-1.632 0-.6613.176-1.2427.528-1.744.352-.512.848-.9067 1.488-1.184.6506-.288 1.3973-.432 2.24-.432.8 0 1.5466.1227 2.24.368.704.2453 1.2906.592 1.76 1.04l-.592 1.216c-.5227-.4373-1.0614-.7573-1.616-.96-.5547-.2133-1.1467-.32-1.776-.32-.8214 0-1.4667.176-1.936.528-.4694.3413-.704.8107-.704 1.408 0 .512.2026.9013.608 1.168.416.2667 1.0773.5067 1.984.72.9493.2133 1.7173.4373 2.304.672.5866.2347 1.056.5547 1.408.96.352.4053.528.928.528 1.568 0 .6613-.176 1.2373-.528 1.728-.352.4907-.8587.8747-1.52 1.152-.6507.2667-1.4187.4-2.304.4zm8.2708-6.944v4.048c0 .5547.1174.9493.352 1.184.2454.224.5814.336 1.008.336.2774 0 .56-.0427.848-.128v1.312c-.352.1173-.752.176-1.2.176-.832 0-1.4773-.2347-1.936-.704-.4586-.4693-.688-1.152-.688-2.048v-4.176h-1.568v-1.248h1.568V14.92l1.616-.56v2.576h2.224v1.248h-2.224zm11.0925-1.248V25h-1.6v-1.376c-.2346.48-.5866.848-1.056 1.104-.4586.256-.9973.384-1.616.384-.7146 0-1.344-.1707-1.888-.512-.5333-.3413-.9493-.8213-1.248-1.44-.2986-.6293-.448-1.36-.448-2.192 0-.832.1494-1.568.448-2.208.3094-.64.736-1.136 1.28-1.488.544-.352 1.1627-.528 1.856-.528.6187 0 1.1574.1333 1.616.4.4587.256.8107.624 1.056 1.104v-1.312h1.6zm-3.888 6.896c.7254 0 1.2854-.2507 1.68-.752.4054-.512.608-1.2267.608-2.144 0-.928-.2026-1.6427-.608-2.144-.3946-.5013-.96-.752-1.696-.752-.7253 0-1.296.2613-1.712.784-.4053.512-.608 1.2267-.608 2.144 0 .9067.2027 1.6107.608 2.112.416.5013.992.752 1.728.752zm10.278-7.088c.2454 0 .5014.0373.768.112l-.032 1.472c-.288-.1067-.6026-.16-.944-.16-.736 0-1.2906.224-1.664.672-.3626.4373-.544.992-.544 1.664V25h-1.6v-5.792c0-.8427-.0426-1.6-.128-2.272h1.504l.144 1.456c.2134-.5333.544-.9387.992-1.216.448-.288.9494-.432 1.504-.432zm4.7675 1.44v4.048c0 .5547.1174.9493.352 1.184.2454.224.5814.336 1.008.336.2774 0 .56-.0427.848-.128v1.312c-.352.1173-.752.176-1.2.176-.832 0-1.4773-.2347-1.936-.704-.4586-.4693-.688-1.152-.688-2.048v-4.176h-1.568v-1.248h1.568V14.92l1.616-.56v2.576h2.224v1.248h-2.224zM99.7901 21h-5.76c.0534 1.888.912 2.832 2.576 2.832.928 0 1.776-.304 2.544-.912l.496 1.152c-.3626.32-.8266.576-1.392.768-.5546.1813-1.1146.272-1.68.272-1.2906 0-2.304-.368-3.04-1.104-.736-.7467-1.104-1.7653-1.104-3.056 0-.8213.16-1.552.48-2.192.3307-.64.7894-1.136 1.376-1.488.5867-.352 1.2534-.528 2-.528 1.088 0 1.9414.352 2.56 1.056.6294.704.944 1.68.944 2.928V21zm-3.472-3.056c-.608 0-1.104.1813-1.488.544-.384.3627-.6293.88-.736 1.552h4.272c-.064-.6827-.272-1.2-.624-1.552-.352-.3627-.8266-.544-1.424-.544zm12.7029-4.72V25h-1.6v-1.376c-.235.48-.587.848-1.056 1.104-.459.256-.998.384-1.616.384-.694 0-1.312-.176-1.856-.528-.544-.352-.971-.8427-1.28-1.472-.299-.64-.448-1.376-.448-2.208 0-.832.149-1.5627.448-2.192.298-.6293.714-1.1147 1.248-1.456.544-.3413 1.173-.512 1.888-.512.608 0 1.141.128 1.6.384.469.256.821.6187 1.056 1.088v-4.992h1.616zm-3.904 10.608c.736 0 1.301-.2507 1.696-.752.405-.512.608-1.2267.608-2.144 0-.9173-.203-1.6267-.608-2.128-.395-.512-.955-.768-1.68-.768-.736 0-1.312.2507-1.728.752-.406.5013-.608 1.2053-.608 2.112 0 .9173.202 1.6373.608 2.16.416.512.986.768 1.712.768z" fill="#370EA3"/></svg>