<svg width="101" height="52" viewBox="0 0 101 52" fill="none" xmlns="http://www.w3.org/2000/svg"><path d="M23.9134 18.5959h3.096v17.088h-3.096v-17.088zm18.0529 4.992l-5.304 12.096h-2.616l-5.232-12.096h3.144l3.48 8.688 3.552-8.688h2.976zm6.8443 12.288c-1.232 0-2.32-.256-3.264-.768-.928-.512-1.648-1.24-2.16-2.184-.496-.96-.744-2.08-.744-3.36 0-1.28.248-2.392.744-3.336.512-.96 1.232-1.696 2.16-2.208.944-.512 2.032-.768 3.264-.768 1.216 0 2.288.256 3.216.768.928.512 1.64 1.248 2.136 2.208.512.944.768 2.056.768 3.336 0 1.28-.256 2.4-.768 3.36-.496.944-1.208 1.672-2.136 2.184-.928.512-2 .768-3.216.768zm-.024-2.352c1.024 0 1.8-.328 2.328-.984.544-.672.816-1.664.816-2.976 0-1.296-.272-2.28-.816-2.952-.544-.688-1.312-1.032-2.304-1.032-1.008 0-1.784.344-2.328 1.032-.544.672-.816 1.656-.816 2.952 0 1.312.264 2.304.792 2.976.544.656 1.32.984 2.328.984zm15.2592-10.248c.464 0 .864.064 1.2.192l-.024 2.736c-.512-.208-1.04-.312-1.584-.312-1.024 0-1.808.296-2.352.888-.528.592-.792 1.376-.792 2.352v6.552h-2.976v-8.688c0-1.28-.064-2.424-.192-3.432h2.808l.24 2.136c.304-.784.784-1.384 1.44-1.8.656-.416 1.4-.624 2.232-.624zm15.069.288l-5.64 12.936c-.64 1.504-1.456 2.6-2.448 3.288-.992.688-2.216 1.144-3.672 1.368l-.672-2.304c1.136-.256 1.984-.584 2.544-.984.576-.384 1.04-.96 1.392-1.728l.384-.888-5.04-11.688h3.144l3.48 8.712 3.552-8.712h2.976z" fill="#fff"/></svg>