<svg width="103" height="42" viewBox="0 0 103 42" fill="none" xmlns="http://www.w3.org/2000/svg"><path d="M27.0233 15.608h4.736c1.1947 0 2.1227.2933 2.784.88.672.576 1.008 1.3653 1.008 2.368s-.3413 1.7973-1.024 2.384c-.672.576-1.5947.864-2.768.864h-3.088V27h-1.648V15.608zm4.544 5.184c.7893 0 1.3813-.1653 1.776-.496.4053-.3307.608-.8107.608-1.44 0-.6187-.2027-1.0933-.608-1.424-.3947-.3307-.9867-.496-1.776-.496h-2.896v3.856h2.896zm9.703-2.048c.2453 0 .5013.0373.768.112l-.032 1.472c-.288-.1067-.6027-.16-.944-.16-.736 0-1.2907.224-1.664.672-.3627.4373-.544.992-.544 1.664V27h-1.6v-5.792c0-.8427-.0427-1.6-.128-2.272h1.504l.144 1.456c.2133-.5333.544-.9387.992-1.216.448-.288.9493-.432 1.504-.432zm1.9996.192h1.6V27h-1.6v-8.064zm1.728-3.52v1.696h-1.872v-1.696h1.872zm5.7448 11.696c-.8107 0-1.52-.1707-2.128-.512-.5973-.3413-1.056-.8213-1.376-1.44-.32-.6293-.48-1.36-.48-2.192 0-.832.1653-1.568.496-2.208.3413-.64.816-1.136 1.424-1.488.608-.352 1.3173-.528 2.128-.528.5653 0 1.1093.096 1.632.288.5227.1813.944.432 1.264.752l-.496 1.168c-.7573-.5973-1.52-.896-2.288-.896-.7787 0-1.3867.256-1.824.768-.4373.5013-.656 1.2107-.656 2.128s.2187 1.6267.656 2.128c.4373.4907 1.0453.736 1.824.736.7893 0 1.552-.2987 2.288-.896l.496 1.168c-.3413.32-.7787.5707-1.312.752-.5227.1813-1.072.272-1.648.272zm4.4804-8.176h1.6V27h-1.6v-8.064zm1.728-3.52v1.696h-1.872v-1.696h1.872zm6.5287 3.328c1.9307 0 2.896 1.0773 2.896 3.232V27h-1.616v-4.928c0-.704-.1387-1.216-.416-1.536-.2667-.32-.6987-.48-1.296-.48-.6827 0-1.232.2133-1.648.64-.4053.4267-.608.9973-.608 1.712V27h-1.6v-5.792c0-.8427-.0427-1.6-.128-2.272h1.504l.144 1.392c.256-.512.624-.9013 1.104-1.168.4907-.2773 1.0453-.416 1.664-.416zm12.6364.192v7.92c0 1.2267-.3253 2.1493-.976 2.768-.64.6293-1.5947.944-2.864.944-1.2267 0-2.2987-.2667-3.216-.8l.272-1.264c.5013.2667.9813.464 1.44.592.4693.128.9653.192 1.488.192 1.504 0 2.256-.768 2.256-2.304V25.24c-.2453.4693-.6027.8427-1.072 1.12-.4693.2667-1.0133.4-1.632.4-.704 0-1.3333-.1653-1.888-.496-.544-.3307-.9707-.8-1.28-1.408-.2987-.608-.448-1.3067-.448-2.096 0-.7893.1493-1.488.448-2.096.3093-.608.736-1.0773 1.28-1.408.5547-.3413 1.184-.512 1.888-.512.6187 0 1.1627.1333 1.632.4.4693.256.8267.624 1.072 1.104v-1.312h1.6zm-3.936 6.528c.7253 0 1.296-.24 1.712-.72.416-.48.624-1.1413.624-1.984s-.208-1.504-.624-1.984c-.4053-.4907-.976-.736-1.712-.736-.7253 0-1.3013.2453-1.728.736-.416.48-.624 1.1413-.624 1.984 0 .832.208 1.4933.624 1.984.4267.48 1.0027.72 1.728.72z" fill="#fff"/></svg>